<svg width="42" height="69" viewBox="0 0 42 69" fill="none" xmlns="http://www.w3.org/2000/svg">
<g filter="url(#filter0_d_29500_112)">
<path d="M27.1602 32.6133C27.0664 32.6836 26.8789 32.7656 26.5977 32.8594C26.3398 32.9531 26.1641 33.0469 26.0703 33.1406H25.6133C26.1523 32.1562 26.8555 31.3828 27.7227 30.8203V30.3984H28.0391C28.1328 30.1641 28.2852 29.9297 28.4961 29.6953C28.8008 29.3906 28.9883 29.1914 29.0586 29.0977H29.1641C28.3203 31.0898 27.6523 32.2617 27.1602 32.6133ZM27.2656 33.9844C27.2891 33.9609 27.3711 33.7852 27.5117 33.457H27.7227C27.6992 33.6445 27.6289 33.8203 27.5117 33.9844H27.2656ZM27.1602 34.1953C26.8555 34.3594 26.6328 34.5 26.4922 34.6172H26.3867C26.4102 34.4766 26.4453 34.3711 26.4922 34.3008C26.5156 34.2773 26.5742 34.2422 26.668 34.1953C26.7383 34.1484 26.7969 34.1133 26.8438 34.0898H27.1602V34.1953ZM25.7188 35.0391V34.9336C25.8828 34.8633 26 34.793 26.0703 34.7227H26.1758C26.1523 34.793 26.1172 34.8984 26.0703 35.0391H25.7188ZM24.9453 35.25C24.9219 35.2969 24.8867 35.3438 24.8398 35.3906C24.793 35.4141 24.4297 35.5898 23.75 35.918C23.5391 35.9648 23.2344 35.9297 22.8359 35.8125C22.4844 35.7188 22.1914 35.7539 21.957 35.918H21.7461C21.7695 36.1758 21.9102 36.3867 22.168 36.5508C22.0742 36.6211 21.8398 36.668 21.4648 36.6914C21.0898 36.7148 20.8906 36.7383 20.8672 36.7617C20.5391 36.7383 20.3164 36.668 20.1992 36.5508C20.082 36.5039 20.0117 36.4688 19.9883 36.4453C21.4883 35.9766 22.8477 35.2617 24.0664 34.3008H24.9453C24.8516 34.582 24.6641 34.793 24.3828 34.9336C24.4531 35.0508 24.6406 35.1562 24.9453 35.25ZM23.3984 36.4453C23.3047 36.375 23.2578 36.3281 23.2578 36.3047C23.3281 36.2344 23.375 36.1758 23.3984 36.1289H23.6094C23.6094 36.1758 23.5391 36.2812 23.3984 36.4453ZM14.3281 42.5977H14.2227C13.9883 41.9883 13.918 41.5195 14.0117 41.1914C14.1758 41.332 14.2578 41.5312 14.2578 41.7891C14.2344 42.0703 14.2578 42.2695 14.3281 42.3867V42.5977ZM13.8711 40.2422C13.918 40.2891 13.9766 40.3828 14.0469 40.5234C14.0938 40.6406 14.1523 40.7227 14.2227 40.7695C14.1758 40.8164 14.1406 40.8516 14.1172 40.875C14.0703 40.9219 14.0352 40.957 14.0117 40.9805C13.8945 40.7461 13.8477 40.5 13.8711 40.2422ZM13.7656 39.7148H13.8711V39.9258H13.7656V39.7148ZM13.5547 38.5547C13.25 37.5234 13.0625 36.8203 12.9922 36.4453C12.9922 36.3516 13.0391 36.0938 13.1328 35.6719C13.25 35.2734 13.2852 34.9922 13.2383 34.8281C13.168 34.6406 12.9805 34.3945 12.6758 34.0898C12.4414 33.832 12.3242 33.5859 12.3242 33.3516H12.9922C13.1328 33.5859 13.2148 33.7266 13.2383 33.7734C13.332 33.9375 13.332 34.4766 13.2383 35.3906C13.8477 36.5156 14.0586 37.9219 13.8711 39.6094C13.6836 39.5156 13.5898 39.3516 13.5898 39.1172C13.5664 38.7188 13.5547 38.5312 13.5547 38.5547ZM27.5117 12.4688C27.1367 12.4219 26.7734 12.3047 26.4219 12.1172C25.9766 11.8594 25.6367 11.6953 25.4023 11.625C25.2148 11.5781 24.8047 11.543 24.1719 11.5195C23.75 11.2148 23.5625 11.0742 23.6094 11.0977C23.5156 11.0742 23.3867 11.0742 23.2227 11.0977C23.0352 11.1445 22.9062 11.1797 22.8359 11.2031C22.7188 11.2031 22.4141 11.168 21.9219 11.0977C21.4766 11.0273 21.125 11.0273 20.8672 11.0977C19.4609 11.4492 18.6875 11.625 18.5469 11.625C16.0156 11.625 14.457 11.8711 13.8711 12.3633H13.7656V11.9414C14.1875 11.8711 14.6328 11.6836 15.1016 11.3789C15.6875 10.9805 16.0977 10.7344 16.332 10.6406C16.5898 10.5469 16.9414 10.5234 17.3867 10.5703C17.832 10.5938 18.1367 10.582 18.3008 10.5352C18.3477 10.5352 18.4297 10.4883 18.5469 10.3945C18.6641 10.3008 18.7344 10.2422 18.7578 10.2188C18.9688 10.1719 19.2617 10.1719 19.6367 10.2188C20.1289 10.2891 20.3867 10.3242 20.4102 10.3242C20.5039 10.3242 20.7969 10.2891 21.2891 10.2188C21.7344 10.1484 22.0273 10.1133 22.168 10.1133C23.8789 10.3477 25.7305 11.0273 27.7227 12.1523C27.6758 12.1992 27.6055 12.3047 27.5117 12.4688ZM26.7383 13.7344C23.9023 12.5625 22.1211 11.9648 21.3945 11.9414C21.4414 11.918 21.5 11.8828 21.5703 11.8359C21.6641 11.7891 21.7227 11.7539 21.7461 11.7305C22.7539 11.7539 24.4531 12.2461 26.8438 13.207C26.7969 13.3477 26.7617 13.4531 26.7383 13.5234V13.7344ZM26.5977 15.3164C26.3398 15.2695 26.1641 15.1992 26.0703 15.1055C25.9531 15.0352 25.8711 14.9297 25.8242 14.7891C25.8711 14.8125 26.1289 14.9531 26.5977 15.2109V15.3164ZM26.2812 17.8828C26.3047 17.8125 26.1875 17.9531 25.9297 18.3047H25.8242C25.8477 18.0469 25.9297 17.8008 26.0703 17.5664H26.3867C26.3633 17.707 26.3281 17.8125 26.2812 17.8828ZM25.7188 14.8945C25.3672 14.8711 25.0039 14.7656 24.6289 14.5781C24.1133 14.3203 23.8203 14.1797 23.75 14.1562C23.6797 14.1328 22.2734 14.1328 19.5312 14.1562V13.8398C22.8359 13.6992 24.7578 13.8398 25.2969 14.2617C25.2031 14.2148 25.3438 14.3555 25.7188 14.6836V14.8945ZM17 12.9961C17.0234 13.0195 17.1289 13.0898 17.3164 13.207C17.457 13.2773 17.7031 13.2187 18.0547 13.0312C18.3594 12.8906 18.5938 12.7383 18.7578 12.5742C19.1094 12.5977 19.4023 12.5977 19.6367 12.5742C19.6602 12.5977 19.6953 12.6328 19.7422 12.6797V12.7852C18.1719 13.0898 17.1758 13.5469 16.7539 14.1562C16.6602 14.1328 16.5898 14.0977 16.543 14.0508C16.5195 14.0273 16.5664 13.8867 16.6836 13.6289C16.8008 13.3711 16.9062 13.1953 17 13.1016V12.9961ZM19.0742 15.5273C18.6758 15.668 18.3711 15.9258 18.1602 16.3008C17.9258 16.7227 17.75 16.9688 17.6328 17.0391C17.5625 17.0391 17.457 17.0508 17.3164 17.0742C17.1758 17.0977 17.0703 17.1211 17 17.1445V17.25C16.9297 17.2969 16.8359 17.4023 16.7188 17.5664C16.6016 17.707 16.5078 17.8125 16.4375 17.8828C16.3906 17.9063 16.2969 17.9297 16.1562 17.9531C16.0156 18 15.9219 18.0469 15.875 18.0938C15.8516 18.1875 15.8164 18.3633 15.7695 18.6211C15.6758 18.7383 15.4414 18.8906 15.0664 19.0781C14.7383 19.2422 14.5273 19.4414 14.4336 19.6758H14.2227C14.2227 19.6758 14.2578 19.4883 14.3281 19.1133C14.375 18.7617 14.4102 18.5625 14.4336 18.5156C14.4805 18.4453 14.6094 18.3516 14.8203 18.2344C15.0312 18.1172 15.1602 18 15.207 17.8828V17.1445C15.418 17.0039 15.6758 16.8164 15.9805 16.582C16.4961 15.9492 16.8828 15.5742 17.1406 15.457C17.4922 15.2695 18.1367 15.1875 19.0742 15.2109V15.5273ZM14.6445 16.2656V16.6875C14.4805 16.6172 14.3984 16.5703 14.3984 16.5469C14.3984 16.5469 14.4219 16.5234 14.4688 16.4766C14.4922 16.4062 14.5156 16.3359 14.5391 16.2656H14.6445ZM33.4883 24.7734C33.6055 24.0938 33.6758 23.8125 33.6992 23.9297C33.5117 23.8125 33.3828 23.2969 33.3125 22.3828C33.2422 21.3281 33.1484 20.6719 33.0312 20.4141C32.9375 20.25 32.7031 19.9922 32.3281 19.6406C31.9766 19.3359 31.7656 19.0313 31.6953 18.7266C31.6484 18.5625 31.6836 18.3867 31.8008 18.1992C31.8945 18.0352 31.9297 17.9297 31.9062 17.8828C31.8828 17.7656 31.8125 17.5078 31.6953 17.1094C31.5781 16.7109 31.5078 16.4648 31.4844 16.3711C31.4609 16.2773 31.5195 16.1016 31.6602 15.8438C31.8008 15.6094 31.8125 15.3984 31.6953 15.2109C31.6953 15.1875 31.625 15.1406 31.4844 15.0703C31.3438 14.9766 31.2734 14.918 31.2734 14.8945C31.1797 14.7539 31.0977 14.5547 31.0273 14.2969C30.9805 14.0625 30.9102 13.875 30.8164 13.7344C30.7461 13.6875 30.6523 13.6172 30.5352 13.5234C30.418 13.4297 30.3242 13.3594 30.2539 13.3125C30.207 13.2422 30.1719 13.1133 30.1484 12.9258C30.125 12.7617 30.0898 12.6445 30.043 12.5742C29.9727 12.5039 29.8555 12.4219 29.6914 12.3281C29.457 12.2344 29.3164 12.1758 29.2695 12.1523C25.8477 9.71484 22.1914 8.82422 18.3008 9.48047C18.2305 9.50391 17.9609 9.50391 17.4922 9.48047C17.0234 9.45703 16.7422 9.45703 16.6484 9.48047C16.625 9.50391 16.5781 9.5625 16.5078 9.65625C16.4141 9.75 16.3555 9.79688 16.332 9.79688C15.8398 9.84375 15.4648 9.87891 15.207 9.90234C13.4023 10.8398 12.5586 11.3086 12.6758 11.3086C12.6523 11.4258 12.6172 11.6367 12.5703 11.9414C12.1953 11.9883 11.8789 12.1875 11.6211 12.5391C11.5742 12.6094 11.4805 12.7617 11.3398 12.9961C11.1992 13.1836 11.0938 13.3242 11.0234 13.418C10.9297 13.5117 10.7188 13.6406 10.3906 13.8047C10.0859 13.9688 9.88672 14.1211 9.79297 14.2617C9.69922 14.4492 9.58203 14.7188 9.44141 15.0703C9.32422 15.4219 9.21875 15.6797 9.125 15.8438C9.07812 15.9141 8.97266 16.0195 8.80859 16.1602C8.62109 16.2773 8.50391 16.3828 8.45703 16.4766C8.57422 16.8516 8.53906 17.1797 8.35156 17.4609C8.35156 17.8594 8.46875 18.1406 8.70312 18.3047C8.63281 18.2812 9.18359 18.0703 10.3555 17.6719C10.3789 17.3906 10.4141 17.1445 10.4609 16.9336C10.625 16.8867 11.1641 16.5352 12.0781 15.8789C12.9688 15.2227 13.4609 14.8242 13.5547 14.6836C13.625 14.5898 13.6953 14.3555 13.7656 13.9805C13.8359 13.6992 13.9531 13.5117 14.1172 13.418C14.4453 13.2305 15.0312 13.0195 15.875 12.7852C15.9219 12.8086 15.9922 12.8438 16.0859 12.8906V12.9961C15.7812 13.2305 15.3594 13.6406 14.8203 14.2266C14.2812 14.8125 13.8594 15.2109 13.5547 15.4219C12.0547 16.5 11.0586 17.25 10.5664 17.6719C10.543 17.6719 10.5312 17.7422 10.5312 17.8828C10.5312 18.0234 10.5078 18.1289 10.4609 18.1992L10.3555 18.3398C10.2852 18.3164 10.2031 18.3047 10.1094 18.3047C10.1094 18.4922 10.0742 18.7617 10.0039 19.1133C9.93359 19.5117 9.88672 19.7695 9.86328 19.8867C9.76953 20.4961 9.85156 20.9531 10.1094 21.2578C10.0859 21.7031 9.82812 22.0898 9.33594 22.418C9.38281 22.8633 9.5 23.1914 9.6875 23.4023V23.5078C9.92188 23.4141 10.0625 23.2617 10.1094 23.0508C10.2266 22.6992 10.3086 22.4883 10.3555 22.418H10.5664C10.5898 22.3711 10.5781 22.2773 10.5312 22.1367C10.4609 21.9961 10.4727 21.8789 10.5664 21.7852C10.5898 21.7617 10.6602 21.75 10.7773 21.75C10.8945 21.75 10.9766 21.7266 11.0234 21.6797C10.9766 21.7266 10.9766 21.5508 11.0234 21.1523C11.7031 20.2148 12.0312 19.7578 12.0078 19.7812C12.0312 19.6641 12.0898 19.4297 12.1836 19.0781C12.2539 18.7969 12.3008 18.5742 12.3242 18.4102C12.418 18.2461 12.6172 18.0234 12.9219 17.7422C13.2031 17.4844 13.4141 17.168 13.5547 16.793C13.6484 16.7695 13.7188 16.7344 13.7656 16.6875H14.2227C14.0586 17.3672 13.5781 18.293 12.7812 19.4648C12.6172 19.6992 12.4766 20.1328 12.3594 20.7656C12.2422 21.4219 12.125 21.8672 12.0078 22.1016C11.9844 22.125 11.7852 22.3945 11.4102 22.9102C11.1992 23.1914 11.1055 23.5664 11.1289 24.0352C11.0117 23.9883 10.9297 23.9531 10.8828 23.9297H10.6719C10.6719 24.2578 10.7422 24.4805 10.8828 24.5977C10.9062 24.6211 10.9766 24.668 11.0938 24.7383C11.1875 24.8086 11.2695 24.8906 11.3398 24.9844C11.5039 24.9609 11.6094 24.9258 11.6562 24.8789C11.9375 24.7383 12.3008 24.2578 12.7461 23.4375C13.1914 22.6172 13.4258 21.9961 13.4492 21.5742C13.7539 21.5273 14.0469 21.2695 14.3281 20.8008C14.6562 20.2617 14.8789 19.957 14.9961 19.8867H15.4531C15.5 19.8398 15.6055 19.6992 15.7695 19.4648C15.957 19.207 16.0625 19.0664 16.0859 19.043C16.1328 18.9961 16.2031 18.9727 16.2969 18.9727C16.4141 18.9727 16.4961 18.9609 16.543 18.9375C16.7305 18.7969 16.9531 18.5508 17.2109 18.1992C17.5156 17.8242 17.7383 17.5781 17.8789 17.4609C18.043 17.2969 18.3828 17.0977 18.8984 16.8633C19.3672 16.6523 19.6836 16.418 19.8477 16.1602C20.7148 16.1133 21.2305 16.1484 21.3945 16.2656C21.582 16.1953 21.7695 15.9844 21.957 15.6328C23.2695 15.6797 23.8672 15.7148 23.75 15.7383C23.8906 15.9727 24.2188 16.2539 24.7344 16.582C24.5469 18.5039 24.4297 19.4297 24.3828 19.3594C25.0156 19.5938 25.5898 19.582 26.1055 19.3242C26.2461 19.2539 26.457 19.125 26.7383 18.9375C27.0195 18.7266 27.2305 18.5859 27.3711 18.5156C28.3086 19.8516 28.8242 20.6953 28.918 21.0469C29.082 21.5156 29.0352 22.043 28.7773 22.6289C28.707 22.793 28.6016 23.0039 28.4609 23.2617C28.2969 23.543 28.1914 23.7305 28.1445 23.8242C28.0508 24.0352 28.0039 24.3867 28.0039 24.8789C27.9805 25.3711 27.9219 25.7227 27.8281 25.9336C27.7578 25.9805 27.6055 26.0859 27.3711 26.25C26.9258 27 26.668 27.3867 26.5977 27.4102H25.8242C25.8008 27.4336 25.7539 27.5039 25.6836 27.6211C25.6133 27.7383 25.5547 27.8086 25.5078 27.832C25.5312 28.0195 25.6367 28.2656 25.8242 28.5703C25.8945 28.5938 25.9883 28.6172 26.1055 28.6406C26.2227 28.6641 26.3164 28.6758 26.3867 28.6758C26.3867 29.0273 26.3164 29.2852 26.1758 29.4492C26.0586 29.6602 25.8008 29.8711 25.4023 30.082C24.8867 30.3633 24.5938 30.5391 24.5234 30.6094C24.4062 30.6797 24.2305 30.9023 23.9961 31.2773C23.7617 31.582 23.5625 31.7812 23.3984 31.875C22.9766 32.1094 22.3203 32.3203 21.4297 32.5078C20.4453 32.7188 19.8125 32.7539 19.5312 32.6133C19.2266 32.6133 19.0391 32.5898 18.9688 32.543C18.875 32.4727 18.8047 32.3203 18.7578 32.0859C18.5234 32.0391 17.9609 32.0859 17.0703 32.2266C16.3906 32.3203 15.8867 32.2383 15.5586 31.9805C15.3711 31.9102 15.1836 31.6289 14.9961 31.1367C14.3867 31.0195 13.9766 31.0195 13.7656 31.1367C13.7422 31.1602 13.707 31.2305 13.6602 31.3477C13.6133 31.4648 13.5781 31.5352 13.5547 31.5586C13.4609 31.5586 13.2734 31.5703 12.9922 31.5938C12.7578 31.6172 12.582 31.6406 12.4648 31.6641C12.2773 31.7344 12.0195 31.9336 11.6914 32.2617C11.3867 32.5664 11.1172 32.7539 10.8828 32.8242C10.8125 35.2383 11.293 37.4297 12.3242 39.3984C12.1602 39.8203 12.125 40.1719 12.2188 40.4531C12.5703 41.3906 12.7227 42.1758 12.6758 42.8086C12.4414 45.6445 12.5117 46.9805 12.8867 46.8164C13.0508 47.3555 13.1211 47.7891 13.0977 48.1172C13.5898 48.2109 13.9297 48.1758 14.1172 48.0117H14.3281C14.3516 47.0977 14.2812 46.5234 14.1172 46.2891C14.1406 46.0781 14.1758 45.9375 14.2227 45.8672V45.7617C14.2227 45.7617 14.3281 45.8672 14.5391 46.0781C14.5391 46.0781 14.7969 46.1133 15.3125 46.1836C15.3828 46.1133 15.4648 46.043 15.5586 45.9727C15.4414 45.1758 15.4648 44.2383 15.6289 43.1602C15.793 41.8711 15.875 41.0742 15.875 40.7695C15.8516 38.707 16.0039 37.4766 16.332 37.0781C16.3555 37.0078 16.3906 36.9023 16.4375 36.7617C16.6484 36.8086 16.8477 36.9258 17.0352 37.1133C17.2695 37.3242 17.4336 37.4531 17.5273 37.5H18.1953C18.2891 37.5234 18.4297 37.6055 18.6172 37.7461C18.8047 37.9102 18.9219 38.0039 18.9688 38.0273C19.3438 37.8633 19.9531 37.8164 20.7969 37.8867C21.6641 37.9805 22.2734 37.957 22.625 37.8164C27.1484 36.0586 30.4297 33.375 32.4688 29.7656C32.8672 29.0625 33.2422 28.1367 33.5938 26.9883C33.6641 26.7539 33.6523 26.3789 33.5586 25.8633C33.4648 25.3008 33.4414 24.9375 33.4883 24.7734ZM16.2266 54.375H15.9805C16.0039 54.1875 16.0391 53.9297 16.0859 53.6016C16.1094 53.625 16.1562 53.6484 16.2266 53.6719C16.2734 53.6953 16.3086 53.707 16.332 53.707C16.3086 53.918 16.2734 54.0703 16.2266 54.1641V54.375ZM14.5391 56.9062C13.8125 56.9062 13.3672 56.4844 13.2031 55.6406C13.0391 54.8672 13.1562 54.2227 13.5547 53.707C13.7422 53.4961 14.0703 53.3906 14.5391 53.3906C14.5391 53.8828 14.5039 54.2109 14.4336 54.375C14.5742 55.1953 14.9844 55.6523 15.6641 55.7461C15.5703 55.9102 15.3945 56.1094 15.1367 56.3438C14.832 56.6016 14.6328 56.7891 14.5391 56.9062ZM18.9688 53.8125C18.9453 53.7656 18.8516 53.6602 18.6875 53.4961C18.5234 53.332 18.4297 53.2266 18.4062 53.1797C18.3828 53.0391 18.4414 52.7812 18.582 52.4062C18.7227 52.0312 18.7461 51.6914 18.6523 51.3867C18.3711 50.9414 18.1484 50.5898 17.9844 50.332C16.8828 49.8867 16.1445 49.7109 15.7695 49.8047C14.668 50.0859 14.1523 50.2266 14.2227 50.2266C14.1523 50.5078 13.9531 50.7656 13.625 51C13.2031 51.3047 12.957 51.5039 12.8867 51.5977C12.8398 51.668 12.8047 51.7852 12.7812 51.9492C12.7578 52.1367 12.7227 52.2656 12.6758 52.3359C12.6055 52.4531 12.3711 52.7695 11.9727 53.2852C11.6445 53.707 11.4336 54.0703 11.3398 54.375C11.2227 54.75 11.2344 55.3828 11.375 56.2734C11.5156 57.0703 11.6562 57.5625 11.7969 57.75C11.8203 57.7734 11.8672 57.7969 11.9375 57.8203C12.0312 57.8438 12.0898 57.8555 12.1133 57.8555C12.2773 58.0195 12.3945 58.4062 12.4648 59.0156C12.3477 58.9922 12.9922 59.2383 14.3984 59.7539C15.1484 60.0117 15.8281 60.0469 16.4375 59.8594C17.3984 59.5781 18.1484 58.8867 18.6875 57.7852C19.2031 56.707 19.2617 55.7461 18.8633 54.9023C19.0273 54.4336 19.0625 54.0703 18.9688 53.8125Z" fill="#ECC839"/>
</g>
<defs>
<filter id="filter0_d_29500_112" x="0.351562" y="0.496094" width="41.3477" height="67.6445" filterUnits="userSpaceOnUse" color-interpolation-filters="sRGB">
<feFlood flood-opacity="0" result="BackgroundImageFix"/>
<feColorMatrix in="SourceAlpha" type="matrix" values="0 0 0 0 0 0 0 0 0 0 0 0 0 0 0 0 0 0 127 0" result="hardAlpha"/>
<feOffset/>
<feGaussianBlur stdDeviation="4"/>
<feComposite in2="hardAlpha" operator="out"/>
<feColorMatrix type="matrix" values="0 0 0 0 1 0 0 0 0 0.357143 0 0 0 0 0 0 0 0 1 0"/>
<feBlend mode="normal" in2="BackgroundImageFix" result="effect1_dropShadow_29500_112"/>
<feBlend mode="normal" in="SourceGraphic" in2="effect1_dropShadow_29500_112" result="shape"/>
</filter>
</defs>
</svg>
