<svg width="163" height="65" viewBox="0 0 163 65" fill="none" xmlns="http://www.w3.org/2000/svg">
<g filter="url(#filter0_d_29500_187)">
<path d="M10.2344 15.6641H10.6562V15.8047H10.5859C10.3828 16.0859 9.96094 16.3438 9.32031 16.5781V16.8359C9.21094 16.8047 9.13281 16.7734 9.08594 16.7422C9.11719 16.7109 9.14844 16.6562 9.17969 16.5781C9.24219 16.5312 9.41406 16.4141 9.69531 16.2266C9.89844 16.0859 10.0781 15.9844 10.2344 15.9219V15.6641ZM10.4219 16.4141C10.4844 16.4609 10.5391 16.5156 10.5859 16.5781H10.5156C10.5156 16.5781 10.2891 16.6875 9.83594 16.9062C9.80469 16.9219 9.53906 17.1406 9.03906 17.5625C8.60156 17.9219 8.36719 18.0703 8.33594 18.0078C8.32031 17.9922 8.32031 17.8516 8.33594 17.5859C8.55469 17.4766 8.83594 17.2969 9.17969 17.0469C9.57031 16.75 9.84375 16.5625 10 16.4844C10.0625 16.4688 10.1406 16.4609 10.2344 16.4609C10.3281 16.4609 10.3906 16.4453 10.4219 16.4141ZM10.5156 16.9062C10.5938 16.9531 10.6406 17.0391 10.6562 17.1641C10.5938 17.2109 10.4141 17.3984 10.1172 17.7266C9.88281 17.9609 9.64844 18.1094 9.41406 18.1719V18.0078C9.49219 17.9609 9.54688 17.875 9.57812 17.75C9.64062 17.6094 9.69531 17.5234 9.74219 17.4922C10.2266 17.1797 10.4844 16.9844 10.5156 16.9062ZM36.0391 37.1797C36.0547 37.1328 36.0781 37.1172 36.1094 37.1328C36.125 37.1484 36.1328 37.1328 36.1328 37.0859C36.1641 37.1328 36.1953 37.1953 36.2266 37.2734C35.9922 37.2578 35.9297 37.2266 36.0391 37.1797ZM35.8047 38.1172H35.7344C35.75 38.0234 35.7969 37.8828 35.875 37.6953C35.9219 37.7891 35.8984 37.8906 35.8047 38V38.1172ZM35.7344 38.5156H35.6172C35.6172 38.4844 35.6094 38.4453 35.5938 38.3984C35.5781 38.3359 35.5625 38.2891 35.5469 38.2578H35.7344V38.5156ZM34.7031 30.4766C35.0156 30.6172 35.2109 30.6719 35.2891 30.6406C35.3359 30.7656 35.3672 30.875 35.3828 30.9688C35.2734 30.9531 35.1562 30.9062 35.0312 30.8281C34.9062 30.7344 34.7969 30.6719 34.7031 30.6406V30.4766ZM35.125 40.1094C35 40.1875 34.9141 40.2734 34.8672 40.3672H34.7031C34.7188 40.2891 34.7344 40.1719 34.75 40.0156C34.7812 39.875 34.7969 39.7734 34.7969 39.7109H35.2188C35.125 39.8516 35.0938 39.9844 35.125 40.1094ZM34.6328 40.5312C34.6016 40.5625 34.5703 40.5938 34.5391 40.625V40.4375C34.6172 40.4844 34.6719 40.5156 34.7031 40.5312H34.6328ZM34.5391 40.8594H34.375V40.6953H34.5391V40.8594ZM33.625 29.7969C33.875 29.9219 34.0469 30.0391 34.1406 30.1484C33.9531 30.0547 33.7812 30 33.625 29.9844V29.7969ZM33.3672 36.7578C33.3516 36.8672 33.2891 37.0469 33.1797 37.2969C33.0547 37.5469 32.9766 37.7344 32.9453 37.8594L33.0391 38.5156C33.0234 38.5625 32.9688 38.6484 32.875 38.7734C32.7656 38.8984 32.7031 38.9844 32.6875 39.0312C32.3438 39.9844 32.1797 40.4531 32.1953 40.4375C32.2578 40.5 32.3125 40.5625 32.3594 40.625C32.4062 40.4688 32.0469 41.0547 31.2812 42.3828C31.25 42.4297 31.2344 42.5156 31.2344 42.6406C31.2344 42.7812 31.2188 42.8906 31.1875 42.9688C31.125 42.9844 31.0469 43.0078 30.9531 43.0391C30.3906 43.7578 29.9062 44.3438 29.5 44.7969C29.3281 45.0156 29.1094 45.3125 28.8438 45.6875C28.4844 46.1875 28.2578 46.5 28.1641 46.625C27.6172 47.3438 27.0391 47.8281 26.4297 48.0781C26.3203 48.1094 26.1641 48.1172 25.9609 48.1016C25.7578 48.0859 25.6562 48.0781 25.6562 48.0781C24.9688 48.2344 24.2109 48.1641 23.3828 47.8672C23.2578 47.8203 22.9219 47.6797 22.375 47.4453C21.9375 47.2578 21.5781 47.1328 21.2969 47.0703C21.2812 47.1016 21.2266 47.1328 21.1328 47.1641C21.1641 47.4141 21.3359 47.6016 21.6484 47.7266V47.8203C21.2109 47.7266 20.7891 47.4922 20.3828 47.1172C19.6484 46.4297 19.3203 46.1016 19.3984 46.1328C19.4922 45.7578 19.5625 45.1094 19.6094 44.1875C19.6562 43.2344 19.7188 42.5781 19.7969 42.2188V40.9531C20.0469 39.7188 20.2188 37.8203 20.3125 35.2578C20.3281 34.7578 20.4375 34 20.6406 32.9844C20.6719 32.8594 20.6562 32.6562 20.5938 32.375C20.5469 32.0781 20.5391 31.8672 20.5703 31.7422C20.7109 30.7734 20.7656 30.2422 20.7344 30.1484V29.6328C20.9062 29.7109 21.0703 29.8516 21.2266 30.0547C21.8672 30.0234 22.3672 29.9141 22.7266 29.7266C22.7578 29.7266 22.8906 29.7578 23.125 29.8203C23.3438 29.8828 23.4688 29.9062 23.5 29.8906C23.5 29.8906 23.5234 29.8047 23.5703 29.6328C23.8359 29.7891 24.0391 29.8438 24.1797 29.7969C24.5234 29.6875 24.7109 29.6328 24.7422 29.6328C24.9766 29.7578 25.6016 29.8984 26.6172 30.0547C27.6172 30.2109 28.1641 30.2656 28.2578 30.2188C28.8516 30.2656 29.4609 30.6641 30.0859 31.4141C30.7578 32.2266 31.3516 32.6719 31.8672 32.75V32.9844H32.1953C32.3984 33.4219 32.7344 33.7031 33.2031 33.8281C33.2188 33.9062 33.2812 34.0547 33.3906 34.2734C33.4844 34.4609 33.5312 34.5938 33.5312 34.6719C33.5156 34.9375 33.4375 35.4141 33.2969 36.1016C33.3281 36.3359 33.3516 36.5547 33.3672 36.7578ZM32.5469 42.6406C32.5469 42.5938 32.5547 42.5781 32.5703 42.5938C32.6016 42.5938 32.6172 42.5703 32.6172 42.5234C32.6484 42.5703 32.6719 42.6328 32.6875 42.7109C32.4844 42.6953 32.4375 42.6719 32.5469 42.6406ZM32.6172 44.7266H32.5469V45.1484H32.4531V45.0547C32.4219 45.0078 32.4531 44.8672 32.5469 44.6328H32.6172V44.7266ZM31.9375 44.1172H31.7734V43.9766H31.9375V44.1172ZM31.7031 44.3047C31.5938 44.4297 31.4531 44.6094 31.2812 44.8438C31.0625 45.125 30.9219 45.3047 30.8594 45.3828H30.7656C30.8125 45.1484 30.9219 44.9297 31.0938 44.7266C31.3438 44.4766 31.4844 44.2734 31.5156 44.1172H31.7031V44.3047ZM31.0938 46.6484C31 46.5391 30.9531 46.4844 30.9531 46.4844C31.0469 46.5938 31.0938 46.6484 31.0938 46.6484ZM22.7266 48.3359H22.3984C22.3828 48.2734 22.3672 48.1953 22.3516 48.1016C22.3359 48.0078 22.3281 47.9453 22.3281 47.9141C22.3906 47.9453 22.4531 47.9844 22.5156 48.0312C22.5625 48.0781 22.6328 48.1172 22.7266 48.1484V48.3359ZM20.0547 23.2578H19.9609C19.9141 22.0703 19.9141 21.3516 19.9609 21.1016C20.0391 21.1172 20.0938 21.1406 20.125 21.1719C20.2188 21.3125 20.2578 21.6172 20.2422 22.0859C20.2266 22.6016 20.1641 22.9453 20.0547 23.1172V23.2578ZM19.9609 24.3594C19.8828 23.9531 19.8828 23.625 19.9609 23.375H20.125C20.1094 23.8281 20.1406 24.1016 20.2188 24.1953V24.2891C20.1406 24.3047 20.0859 24.3281 20.0547 24.3594H19.9609ZM20.125 26.3047V26.375H20.0547V26.2109C20.1328 26.2422 20.1875 26.2734 20.2188 26.3047H20.125ZM20.0547 25.9531H19.8906C19.9062 25.8438 19.9297 25.7344 19.9609 25.625C20.0078 25.4531 20.0391 25.3359 20.0547 25.2734C20.0703 25.2891 20.125 25.3203 20.2188 25.3672C20.1875 25.6016 20.1328 25.7734 20.0547 25.8828V25.9531ZM20.3125 20.9375C20.25 20.9531 20.1641 20.9766 20.0547 21.0078C20.0391 20.9609 20.0312 20.8047 20.0312 20.5391C20.0312 20.3047 20.0078 20.1328 19.9609 20.0234C20.0391 20.0391 20.1172 20.0625 20.1953 20.0938C20.2422 20.125 20.3047 20.1562 20.3828 20.1875C20.2891 20.5781 20.2656 20.8281 20.3125 20.9375ZM19.7969 14.8203C20.0625 14.7734 20.2578 14.75 20.3828 14.75C20.3672 15.9844 20.3438 16.5625 20.3125 16.4844V16.5781C20.2344 16.5938 20.1328 16.6016 20.0078 16.6016C19.8672 16.6328 19.7656 16.6484 19.7031 16.6484C19.7031 16.6484 19.6484 16.3203 19.5391 15.6641C19.7109 15.4141 19.7969 15.1328 19.7969 14.8203ZM21.0625 28.2969C21.1094 28.3125 21.1641 28.3438 21.2266 28.3906V28.2969H21.9062V28.3906C21.375 28.6562 21.0312 28.8828 20.875 29.0703H20.8047C20.8203 29.0078 20.8594 28.8828 20.9219 28.6953C20.9688 28.5547 21.0156 28.4219 21.0625 28.2969ZM26.5 28.9531C26.4062 29.125 25.8125 29.1562 24.7188 29.0469C23.5312 28.9375 22.8438 28.9453 22.6562 29.0703H22.3984V28.8828C22.5391 28.8203 22.8359 28.7578 23.2891 28.6953C23.6172 28.6328 23.875 28.5 24.0625 28.2969C24.5 28.3125 24.9531 28.4141 25.4219 28.6016C25.9531 28.8203 26.3125 28.9375 26.5 28.9531ZM20.9922 23.6094C21.0234 23.5 21.0703 23.3594 21.1328 23.1875C21.0391 22.4062 21.0391 21.6797 21.1328 21.0078C21.1484 20.9141 21.1328 20.7734 21.0859 20.5859C21.0391 20.4141 21.0312 20.2812 21.0625 20.1875C21.1406 19.8125 21.1562 18.8828 21.1094 17.3984C21.0625 16.1172 21.1562 15.2813 21.3906 14.8906V14.3281C21.5781 14.3438 21.8047 14.3438 22.0703 14.3281C22.1016 14.1719 22.1016 14.0312 22.0703 13.9062C22.1953 13.9375 22.2891 13.9922 22.3516 14.0703C22.4453 14.1641 22.5156 14.2109 22.5625 14.2109C22.6875 14.2734 22.8281 14.2578 22.9844 14.1641C23.1719 14.0391 23.2812 13.9766 23.3125 13.9766C23.4688 13.9609 23.8906 14.0156 24.5781 14.1406C24.7656 14.1875 25.0781 14.1719 25.5156 14.0938C25.9375 14 26.1797 13.9609 26.2422 13.9766C26.2734 13.9766 26.3359 14.0156 26.4297 14.0938C26.5234 14.1719 26.5703 14.2109 26.5703 14.2109C26.7578 14.2266 27.0156 14.25 27.3438 14.2812C27.6719 14.2969 27.9219 14.3125 28.0938 14.3281C28.1562 14.3438 28.3984 14.4375 28.8203 14.6094C29.1172 14.7188 29.3828 14.7891 29.6172 14.8203V14.8906H29.6875C29.6719 15.0625 29.5078 15.7344 29.1953 16.9062C29.1641 16.9844 29.1719 17.1016 29.2188 17.2578C29.25 17.4141 29.2656 17.4922 29.2656 17.4922C29.2344 17.6016 29.0938 17.8359 28.8438 18.1953C28.6562 18.4922 28.5469 18.7578 28.5156 18.9922C28.25 19.0859 28.1328 19.2109 28.1641 19.3672C28.1797 19.6016 28.1797 19.7344 28.1641 19.7656C28.1484 19.8125 28.0547 19.875 27.8828 19.9531C27.7266 20.0469 27.6328 20.125 27.6016 20.1875C27.5859 20.2656 27.5703 20.375 27.5547 20.5156C27.5234 20.6562 27.5078 20.7734 27.5078 20.8672C27.4609 20.9297 27.3672 21.0156 27.2266 21.125C27.0547 21.2188 26.9531 21.2969 26.9219 21.3594C26.7812 21.5312 26.5703 21.9688 26.2891 22.6719C26.0391 23.2344 25.7422 23.6328 25.3984 23.8672V24.2891C25.2891 24.3047 25.2109 24.3281 25.1641 24.3594C25.0234 24.4219 24.9453 24.5 24.9297 24.5938C24.9297 24.75 24.8984 24.875 24.8359 24.9688C24.7734 25.0312 24.6484 25.1094 24.4609 25.2031C24.2578 25.2969 24.125 25.3828 24.0625 25.4609C23.5781 26.0859 23.1797 26.5 22.8672 26.7031C22.3516 27.0469 21.6875 27.2188 20.875 27.2188C20.875 25.5938 20.9141 24.3906 20.9922 23.6094ZM21.9062 13.2969H22.1406V13.3906C22.0781 13.4375 22.0234 13.4922 21.9766 13.5547C21.8984 13.5391 21.8438 13.5156 21.8125 13.4844C21.8281 13.4844 21.8594 13.4531 21.9062 13.3906V13.2969ZM22.4688 13.2266C22.4844 13.1797 22.5078 13.1641 22.5391 13.1797C22.5703 13.1953 22.5781 13.1875 22.5625 13.1562C22.6406 13.1719 22.6953 13.1953 22.7266 13.2266C22.6953 13.2578 22.6719 13.2812 22.6562 13.2969C22.4375 13.2969 22.375 13.2734 22.4688 13.2266ZM24.7422 13.5547C24.6641 13.5391 24.6094 13.5156 24.5781 13.4844C24.6562 13.5156 24.7109 13.5391 24.7422 13.5547ZM25.8203 13.2969C26.1172 13.3281 26.3203 13.3047 26.4297 13.2266C26.4453 13.2578 26.4688 13.2812 26.5 13.2969H27.0859V13.4844C26.5391 13.5 26.1172 13.5 25.8203 13.4844V13.2969ZM28.2578 13.4844V13.6484C27.8516 13.6641 27.5703 13.5781 27.4141 13.3906C27.6328 13.4063 27.7734 13.4375 27.8359 13.4844H28.2578ZM31.2812 15.5703C31.25 15.7891 31.1797 16.0234 31.0703 16.2734C30.8984 16.6172 30.7969 16.8281 30.7656 16.9062C30.7188 17.3438 30.6953 17.625 30.6953 17.75C30.6797 17.7969 30.6172 17.9141 30.5078 18.1016C30.4297 18.2734 30.375 18.4062 30.3438 18.5C30.3594 18.5312 30.3906 18.6094 30.4375 18.7344C30.4219 18.7969 30.3359 18.8594 30.1797 18.9219C30.0547 18.9844 29.9688 19.0391 29.9219 19.0859C29.9219 19.1328 29.9141 19.2188 29.8984 19.3438C29.8828 19.4531 29.8672 19.5391 29.8516 19.6016C29.2734 20.7578 28.7109 21.6172 28.1641 22.1797C28.0859 22.2734 27.8594 22.4766 27.4844 22.7891C27.1719 23.0391 26.9609 23.2578 26.8516 23.4453H26.7578C26.9922 22.9609 27.3906 22.3203 27.9531 21.5234C28.5469 20.6484 28.9609 20.0078 29.1953 19.6016C29.1797 19.6172 29.7031 18.2734 30.7656 15.5703H31.2812ZM31.0938 13.2969C31 13.2656 30.9219 13.2188 30.8594 13.1562C30.9844 13.2188 31.0625 13.2656 31.0938 13.2969ZM30.6953 28.8125C30.6016 28.8438 30.5156 28.8438 30.4375 28.8125H30.6953ZM32.125 30.8281H32.4531C32.4844 30.9219 32.5547 31.0781 32.6641 31.2969C32.6953 31.3281 32.7031 31.3359 32.6875 31.3203C32.6875 31.3203 32.6875 31.3281 32.6875 31.3438C32.8906 31.7969 33.0625 32.125 33.2031 32.3281V32.75C32.9688 32.6094 32.7734 32.5469 32.6172 32.5625C32.5703 32.4219 32.4844 32.2344 32.3594 32C32.3438 31.9844 32.4531 31.7656 32.6875 31.3438C32.6875 31.3438 32.6797 31.3281 32.6641 31.2969C32.4141 31.1719 32.2344 31.1016 32.125 31.0859V30.8281ZM19.2109 19.6016C19.2734 19.8203 19.2188 20.0625 19.0469 20.3281V20.4453H18.9766C18.4609 18.9766 18.3438 17.0156 18.625 14.5625C18.9062 14.6562 19.0469 14.8281 19.0469 15.0781C19.0625 15.125 19.0547 15.25 19.0234 15.4531C19.0234 15.6406 19.0312 15.7969 19.0469 15.9219C19.0781 16.0781 19.0781 16.7109 19.0469 17.8203C19.0156 17.9922 18.9922 18.1328 18.9766 18.2422H19.1406C19.0781 18.6016 19.0469 18.7656 19.0469 18.7344C19.0469 18.75 19.0859 18.7969 19.1641 18.875C19.2422 18.9531 19.2812 18.9922 19.2812 18.9922C19.2812 19.0078 19.2422 19.0781 19.1641 19.2031C19.0859 19.3125 19.0469 19.3828 19.0469 19.4141C19.0312 19.5078 19.0547 19.5547 19.1172 19.5547C19.1797 19.5703 19.2109 19.5859 19.2109 19.6016ZM19.1406 33.4766C19.1719 33.5547 19.1953 33.6719 19.2109 33.8281C19.1641 33.7656 19.1406 33.6484 19.1406 33.4766ZM19.0469 21.4297C19.0156 21.3359 18.9922 21.25 18.9766 21.1719L19.1406 21.2656V21.4297H19.0469ZM16.7734 13.8125C16.7891 13.7969 16.875 13.7109 17.0312 13.5547C17.0938 13.5859 17.1484 13.6172 17.1953 13.6484C17.2422 13.5703 17.2188 13.625 17.125 13.8125H16.7734ZM16.7031 13.9062C16.5781 13.9531 16.4922 14.0078 16.4453 14.0703C16.4141 14.0078 16.3828 13.9219 16.3516 13.8125H16.7031V13.9062ZM38.4062 32.0703C38.3281 32.0391 38.2734 32.0391 38.2422 32.0703C38.1641 32.0391 38.0156 31.7969 37.7969 31.3438C37.5625 30.9062 37.3984 30.6406 37.3047 30.5469C37.2422 30.4844 37.1094 30.4297 36.9062 30.3828C36.6875 30.3203 36.5391 30.2656 36.4609 30.2188C36.3203 30.125 36.0234 29.9297 35.5703 29.6328C35.1953 29.3828 34.9375 29.2188 34.7969 29.1406H34.375C34.4531 29.1719 34.1172 28.8906 33.3672 28.2969C33.2109 28.1719 32.8984 28.0391 32.4297 27.8984C31.9297 27.7578 31.6016 27.6406 31.4453 27.5469C31.3672 27.5 31.2266 27.3906 31.0234 27.2188C30.8359 27.0469 30.6953 26.9297 30.6016 26.8672C30.4922 26.8203 30.3281 26.7812 30.1094 26.75C29.875 26.7188 29.7109 26.6797 29.6172 26.6328C29.5391 26.5859 29.4219 26.4844 29.2656 26.3281C29.125 26.1719 29.0156 26.0781 28.9375 26.0469L28.6797 26.1172C27.6016 25.8359 26.9922 25.6172 26.8516 25.4609C26.8047 25.4297 26.7734 25.3984 26.7578 25.3672C26.8203 25.3359 26.8906 25.2656 26.9688 25.1562C27.0625 25.0469 27.1328 24.9844 27.1797 24.9688H27.5078C27.5547 24.9219 27.6016 24.8203 27.6484 24.6641C27.6641 24.5078 27.7031 24.4062 27.7656 24.3594C30.1094 22.4219 31.7812 20.3047 32.7812 18.0078C32.9844 17.5234 33.2344 16.4375 33.5312 14.75C33.5312 14.6719 33.5156 14.5703 33.4844 14.4453C33.4844 14.3047 33.4766 14.2031 33.4609 14.1406C33.4766 13.4844 33.6172 13.0391 33.8828 12.8047C33.8672 12.5703 33.8203 12.4219 33.7422 12.3594C33.7422 12.3437 33.6172 12.2969 33.3672 12.2188C33.3516 12.0781 33.3281 11.9375 33.2969 11.7969C33.2031 11.8125 32.9922 11.8359 32.6641 11.8672C32.3828 11.9141 32.2031 11.9219 32.125 11.8906C31.875 11.8125 31.5547 11.625 31.1641 11.3281C30.7109 10.9844 30.4141 10.7813 30.2734 10.7188C30.1641 10.6562 29.6641 10.4922 28.7734 10.2266C28.5391 10.1484 27.9766 10.1172 27.0859 10.1328C26.1953 10.1641 25.6953 10.2188 25.5859 10.2969C25.5703 10.3281 25.5469 10.4063 25.5156 10.5312C25.1875 10.3125 24.5156 10.3438 23.5 10.625C21.2188 11.2812 19.9531 11.4766 19.7031 11.2109C19.3594 11.5703 18.8359 11.8203 18.1328 11.9609C18.0859 11.9609 18.0234 11.9531 17.9453 11.9375C17.8672 11.9063 17.8203 11.8906 17.8047 11.8906C17.7578 11.9063 17.6562 11.9609 17.5 12.0547C17.3594 12.1484 17.2578 12.2031 17.1953 12.2188H16.7734V12.3828C16.3672 12.4297 16.0625 12.4609 15.8594 12.4766C15.75 12.5078 15.5781 12.6406 15.3438 12.875C15.125 13.0781 14.9688 13.1953 14.875 13.2266C14.7812 13.2422 14.6953 13.2188 14.6172 13.1562C14.5391 13.1094 14.4531 13.1094 14.3594 13.1562C14.0938 13.1719 13.3672 13.6406 12.1797 14.5625C12.1172 14.6094 12.0234 14.625 11.8984 14.6094C11.7734 14.5781 11.6719 14.5859 11.5938 14.6328C11.5312 14.6953 11.4375 14.8438 11.3125 15.0781C11.25 15.2188 11.1172 15.2734 10.9141 15.2422C10.8672 15.3672 10.8438 15.5078 10.8438 15.6641C10.75 15.6797 10.9688 15.5391 11.5 15.2422C11.75 15.1016 12.1719 14.875 12.7656 14.5625C13.2969 14.2812 13.7188 14.0625 14.0312 13.9062C14.1562 13.8281 14.375 13.7578 14.6875 13.6953C14.9531 13.6484 15.1562 13.5781 15.2969 13.4844C15.3906 13.5 15.4922 13.5234 15.6016 13.5547V13.6484C15.5547 13.6641 15.3125 13.75 14.875 13.9062C14.8281 13.9219 14.7891 13.9766 14.7578 14.0703C14.7109 14.1641 14.6641 14.2109 14.6172 14.2109C14.5391 14.2266 14.4375 14.25 14.3125 14.2812C14.1719 14.2969 14.0781 14.3125 14.0312 14.3281C13.9844 14.3438 13.9219 14.4219 13.8438 14.5625C13.7812 14.7031 13.7344 14.7891 13.7031 14.8203C13.625 14.8672 13.4297 14.9141 13.1172 14.9609C12.7891 15.0078 12.5625 15.0703 12.4375 15.1484C12.2812 15.2422 12.0234 15.4219 11.6641 15.6875C11.3203 15.9531 11.0469 16.1328 10.8438 16.2266C10.9062 16.3359 10.9531 16.3906 10.9844 16.3906C10.9844 16.3906 11 16.375 11.0312 16.3438C11.0781 16.3438 11.125 16.3438 11.1719 16.3438C11.1562 16.4062 11.125 16.5078 11.0781 16.6484H10.8438C10.8594 16.8203 10.8828 16.9375 10.9141 17C12.1953 16.2188 13.0078 15.6875 13.3516 15.4062C13.3828 15.3906 13.5 15.4141 13.7031 15.4766C13.8125 15.2891 13.9688 15.1719 14.1719 15.125C14.3906 15.0625 14.5859 15.1016 14.7578 15.2422C14.8984 14.9453 15.0391 14.7422 15.1797 14.6328C15.2422 14.6172 15.3203 14.625 15.4141 14.6562C15.5078 14.6875 15.6016 14.6797 15.6953 14.6328C15.7891 14.6172 15.9453 14.5234 16.1641 14.3516C16.3828 14.1797 16.5312 14.0859 16.6094 14.0703C16.6719 14.0547 16.7734 14.0469 16.9141 14.0469C17.0547 14.0469 17.1797 14.0234 17.2891 13.9766C17.3047 13.9297 17.3203 13.8437 17.3359 13.7188C17.3516 13.625 17.3672 13.5703 17.3828 13.5547V13.3906H17.7109C17.6797 13.4219 17.625 13.4531 17.5469 13.4844C17.5312 13.7031 17.6172 13.8672 17.8047 13.9766C17.7734 14.0547 17.7422 14.1094 17.7109 14.1406C17.6484 14.1875 17.5547 14.2031 17.4297 14.1875C17.3047 14.1563 17.2266 14.1406 17.1953 14.1406C17.1484 14.1719 16.8438 14.375 16.2812 14.75C16.2656 14.75 16.125 14.9375 15.8594 15.3125V15.4062C15.8281 15.3594 15.8281 15.2734 15.8594 15.1484H15.7891V15.0547C15.6328 15.1016 15.4453 15.1719 15.2266 15.2656C15.0547 15.3437 14.8516 15.3906 14.6172 15.4062V15.6641C14.6797 15.6484 14.0938 16.0391 12.8594 16.8359C12.875 16.9453 12.9297 17.0859 13.0234 17.2578C13.2891 17.1953 13.5547 17.0391 13.8203 16.7891C14.1484 16.4922 14.3828 16.3047 14.5234 16.2266H15.0156C15.0625 16.2109 15.1094 16.1484 15.1562 16.0391C15.2188 15.9141 15.2656 15.8359 15.2969 15.8047H15.8594C16 15.7734 16.3125 15.6094 16.7969 15.3125C17.2031 15.0781 17.5625 14.9375 17.875 14.8906C17.8281 16.8594 17.8047 17.7891 17.8047 17.6797C17.9609 18.7422 18.0078 19.4375 17.9453 19.7656C17.9297 19.9531 17.9453 20.2109 17.9922 20.5391C18.0547 20.8359 18.0703 21.0234 18.0391 21.1016C18.0703 21.2734 18.0781 21.3516 18.0625 21.3359C18.0625 21.3359 18.1094 21.3438 18.2031 21.3594C18.2031 21.4219 18.2031 21.7266 18.2031 22.2734C18.2188 22.7578 18.1953 23.0625 18.1328 23.1875C18.1328 23.2656 18.2734 23.4609 18.5547 23.7734C18.6953 23.9609 18.75 25.0781 18.7188 27.125C18.7188 27.1719 18.7812 27.3594 18.9062 27.6875C19.0312 28 19.0781 28.1797 19.0469 28.2266C18.5312 29.0859 18.2812 29.7812 18.2969 30.3125C18.4219 30.3281 18.5078 30.3594 18.5547 30.4062C18.6484 30.4375 18.7188 30.5 18.7656 30.5938C18.8281 30.7031 18.8984 30.7812 18.9766 30.8281C18.5078 32.0781 18.3672 32.8594 18.5547 33.1719V33.3359C18.5859 33.4297 18.6094 33.375 18.625 33.1719H18.7188C18.6875 33.2812 18.6484 33.3438 18.6016 33.3594C18.5234 33.4219 18.4766 33.4609 18.4609 33.4766C18.4766 33.5078 18.5078 33.625 18.5547 33.8281L18.3672 34.0156C18.3672 33.9844 18.3984 34.375 18.4609 35.1875C18.4609 35.2031 18.3516 36.0938 18.1328 37.8594C17.9141 39.5625 17.8828 40.5938 18.0391 40.9531C18.1016 40.9688 18.1875 41 18.2969 41.0469C18.375 40.9531 18.4844 40.8672 18.625 40.7891C18.6094 40.6797 18.5859 40.5781 18.5547 40.4844C18.5078 40.3594 18.4766 40.2891 18.4609 40.2734C18.4609 40.2578 18.4844 40.1641 18.5312 39.9922C18.5938 39.8047 18.625 39.7109 18.625 39.7109C18.5938 39.5859 18.5391 39.4141 18.4609 39.1953C18.4453 39.3203 18.5859 38.6797 18.8828 37.2734C18.9922 36.7578 18.9062 36.4219 18.625 36.2656C18.6406 36.25 18.6797 36.2188 18.7422 36.1719C18.8203 36.1406 18.8672 36.1172 18.8828 36.1016C18.9453 35.9922 18.9844 35.7031 19 35.2344C19.0312 34.7656 19.0781 34.4922 19.1406 34.4141V34.3203H19.2109V34.4141C19.2891 34.4453 19.3516 34.4766 19.3984 34.5078C19.4297 34.5703 19.4062 34.6641 19.3281 34.7891C19.2344 34.9453 19.1953 35.0781 19.2109 35.1875C19.2266 35.2031 19.2812 35.3125 19.375 35.5156C19.4531 35.6875 19.4844 35.8203 19.4688 35.9141C19.4531 35.9922 19.3906 36.1875 19.2812 36.5C19.1719 36.75 19.125 36.9766 19.1406 37.1797C19.2344 38.7422 19.0938 40.1641 18.7188 41.4453C18.6562 41.6484 18.7266 41.9141 18.9297 42.2422C19.1328 42.5391 19.2031 42.7812 19.1406 42.9688C19.0469 43 18.9609 43.0234 18.8828 43.0391L18.5547 45.0547C18.2266 44.9922 18 44.7656 17.875 44.375H17.6172C17.5547 44.0312 17.3359 43.6484 16.9609 43.2266C16.4609 42.6641 16.1797 42.3281 16.1172 42.2188H15.8594C15.9062 42.2969 16.0156 42.4297 16.1875 42.6172C16.3125 42.7734 16.3984 42.9141 16.4453 43.0391C16.5078 43.0859 16.4531 43.2031 16.2812 43.3906C16.3281 43.4219 16.3828 43.4453 16.4453 43.4609C16.3984 43.5391 16.3438 43.5938 16.2812 43.625C16.5938 44.2969 16.9609 44.8047 17.3828 45.1484C17.3672 45.3047 17.3359 45.4141 17.2891 45.4766C17.2734 45.5078 17.2422 45.5391 17.1953 45.5703C17.1328 45.4453 17.0312 45.2656 16.8906 45.0312C16.7031 44.8125 16.5859 44.6484 16.5391 44.5391H16.3516C16.4297 45.1328 16.9375 45.8672 17.875 46.7422C17.9062 46.7578 17.9766 46.7734 18.0859 46.7891C18.1953 46.8203 18.2656 46.8516 18.2969 46.8828C18.3594 46.9922 18.4141 47.1406 18.4609 47.3281C18.5078 47.5 18.5625 47.6328 18.625 47.7266C19.2969 48.6484 20.4141 49.5703 21.9766 50.4922C22.0234 50.5234 22.1016 50.6016 22.2109 50.7266C22.3359 50.8203 22.4219 50.8828 22.4688 50.9141C22.5312 50.9453 22.875 50.9531 23.5 50.9375C24.1406 50.9062 24.5312 50.875 24.6719 50.8438C24.6875 50.8281 24.7656 50.75 24.9062 50.6094C25.0312 50.5156 25.1484 50.4766 25.2578 50.4922C25.7891 50.6641 26.0391 50.75 26.0078 50.75C26.1797 50.7031 26.3984 50.5703 26.6641 50.3516C26.9609 50.1016 27.1562 49.9531 27.25 49.9062C27.3906 49.8438 27.6406 49.7656 28 49.6719C28.2969 49.6094 28.5234 49.5234 28.6797 49.4141V49.25C28.7266 49.1875 28.8125 49.1406 28.9375 49.1094C29.0469 49.0625 29.1328 49.0234 29.1953 48.9922C29.1328 48.9297 29.1641 48.8125 29.2891 48.6406C29.4141 48.4688 29.5234 48.3672 29.6172 48.3359C29.7109 48.2734 29.8438 48.2422 30.0156 48.2422C30.1562 48.2266 30.2656 48.1953 30.3438 48.1484C30.4844 48.0703 30.6328 47.9219 30.7891 47.7031C30.9922 47.4531 31.125 47.2969 31.1875 47.2344C31.2188 47.2188 31.2734 47.2031 31.3516 47.1875C31.4297 47.1719 31.4844 47.1641 31.5156 47.1641C31.5625 47.1172 31.6016 47.0234 31.6328 46.8828C31.6328 46.7734 31.6562 46.6953 31.7031 46.6484C31.8125 46.6172 31.9219 46.5859 32.0312 46.5547C32.0781 46.5078 32.1172 46.4453 32.1484 46.3672C32.2109 46.2578 32.2578 46.1797 32.2891 46.1328C32.3516 46.0547 32.4609 45.9688 32.6172 45.875C32.7891 45.7812 32.8984 45.7031 32.9453 45.6406C33.1016 45.4844 33.2656 45.2266 33.4375 44.8672C33.625 44.4609 33.7734 44.1875 33.8828 44.0469C33.9609 43.9375 34.1328 43.7422 34.3984 43.4609C34.6172 43.2266 34.7734 43.0312 34.8672 42.875C35.1797 42.3906 35.3203 42.1719 35.2891 42.2188C35.3359 41.9219 35.3672 41.7188 35.3828 41.6094C35.4141 41.6094 35.4531 41.6016 35.5 41.5859C35.5625 41.5703 35.6016 41.5547 35.6172 41.5391C35.6953 41.4297 35.7578 41.2812 35.8047 41.0938C35.8516 40.8906 35.9062 40.7344 35.9688 40.625C36 40.5625 36.0859 40.4688 36.2266 40.3438C36.3672 40.2031 36.4453 40.0938 36.4609 40.0156C36.4609 39.9688 36.4375 39.8281 36.3906 39.5938C36.4531 39.4062 36.6328 38.9922 36.9297 38.3516C37.2734 37.6641 37.5234 37.1094 37.6797 36.6875C38.2266 35.2812 38.3281 34.2969 37.9844 33.7344C37.8281 33.5312 37.6016 33.4219 37.3047 33.4062C37.3203 33.3594 37.4062 33.1406 37.5625 32.75C37.6719 32.7031 37.7812 32.6719 37.8906 32.6562C37.8906 32.8438 37.9219 33.0156 37.9844 33.1719H38.3125C38.3125 33.4688 38.2891 33.6562 38.2422 33.7344C38.2578 33.7812 38.3125 33.8984 38.4062 34.0859C38.75 34.0078 38.8906 33.7031 38.8281 33.1719C38.7812 32.7031 38.6406 32.3359 38.4062 32.0703ZM65.1672 30.1016H65.0031V29.7734H65.1672V30.1016ZM65.0969 30.5938C65.0656 30.6406 65.0109 30.75 64.9328 30.9219H64.8391C64.8547 30.8125 64.8781 30.6953 64.9094 30.5703C64.9562 30.4297 64.9875 30.3281 65.0031 30.2656C65.0812 30.3594 65.1125 30.4688 65.0969 30.5938ZM64.5812 23.7266C64.5344 23.4297 64.5187 23 64.5344 22.4375C64.55 21.8906 64.5109 21.4453 64.4172 21.1016C64.3078 20.5391 64.2609 20.2109 64.2766 20.1172C64.3859 19.2578 64.4094 18.6172 64.3469 18.1953C64.0031 15.8047 63.8391 14.1016 63.8547 13.0859C63.9484 13.1797 64.1125 13.7266 64.3469 14.7266C64.3312 14.7891 64.3156 14.8594 64.3 14.9375C64.2844 15.0469 64.2766 15.1172 64.2766 15.1484C64.2922 15.1797 64.3625 15.3203 64.4875 15.5703C64.6125 15.7891 64.675 15.9531 64.675 16.0625C64.675 16.1406 64.6359 16.2578 64.5578 16.4141C64.4797 16.5703 64.4641 16.7266 64.5109 16.8828C64.5109 16.9141 64.55 16.9766 64.6281 17.0703C64.7062 17.1484 64.7531 17.1953 64.7687 17.2109C64.7062 17.3828 64.7297 17.6875 64.8391 18.125C64.8547 18.2188 64.8234 18.4609 64.7453 18.8516C64.6359 19.1953 64.6125 19.4219 64.675 19.5312H64.8391C64.7922 19.7812 64.7687 19.9766 64.7687 20.1172C64.7687 20.1172 64.7922 20.1953 64.8391 20.3516C64.9016 20.5078 64.9328 20.5938 64.9328 20.6094C64.9484 20.7031 64.9172 20.8203 64.8391 20.9609C64.7297 21.1172 64.675 21.2188 64.675 21.2656C64.6281 21.4688 64.6281 21.8594 64.675 22.4375C64.7375 23.0312 64.7922 23.3594 64.8391 23.4219V23.6562C64.7609 23.6875 64.7062 23.7109 64.675 23.7266H64.5812ZM64.5812 23.8203C64.6437 23.8828 64.675 23.9922 64.675 24.1484C64.6281 24.0859 64.5969 23.9766 64.5812 23.8203ZM64.675 24.5703C64.6281 24.5859 64.5969 24.5547 64.5812 24.4766H64.5109C64.5422 24.4297 64.5656 24.375 64.5812 24.3125H64.675V24.5703ZM64.5109 24.8984C64.5891 24.9297 64.6437 24.9531 64.675 24.9688C64.5969 24.9531 64.5422 24.9297 64.5109 24.8984ZM64.5812 25.6484C64.55 25.6016 64.5266 25.5156 64.5109 25.3906H64.5812V25.6484ZM63.4562 23.6562H63.2687V23.3281C63.2844 23.3438 63.3156 23.3828 63.3625 23.4453C63.3937 23.5078 63.425 23.5469 63.4562 23.5625V23.6562ZM63.4562 25.0625H63.3625V24.8984H63.4562V25.0625ZM46.1125 13.6719C46.0812 13.6875 46.05 13.7109 46.0187 13.7422C46.0031 13.7109 46.0031 13.3828 46.0187 12.7578H46.1828C46.1984 13.2578 46.175 13.5625 46.1125 13.6719ZM46.1125 13.8359V14.0703C46.0656 14.0234 46.0344 13.9453 46.0187 13.8359H46.1125ZM46.1828 14.5625H46.1125V14.9141H46.0187C46.0031 14.8359 46.0031 14.6719 46.0187 14.4219C46.05 14.4375 46.0812 14.4609 46.1125 14.4922H46.1828V14.5625ZM45.925 18.2891L45.8547 17.7969H46.1125V17.9609H46.1828C46.1359 18.1172 46.05 18.2578 45.925 18.3828V18.2891ZM46.1125 15.3828V17.2109H45.925V16.3203C45.925 16.0234 45.925 15.7109 45.925 15.3828H46.1125ZM46.0187 12.1953H46.1828C46.1672 12.3516 46.1437 12.4531 46.1125 12.5V12.6641H46.0187V12.1953ZM44.7062 14.9141H44.6125C44.6125 14.5859 44.6125 14.0547 44.6125 13.3203C44.6125 12.6797 44.6125 12.1328 44.6125 11.6797C44.675 11.7422 44.7297 11.8281 44.7766 11.9375C44.9641 13.5 44.9406 14.4609 44.7062 14.8203V14.9141ZM44.7062 11.1875H44.7766V11.3516H44.7062V11.1875ZM66.0812 23.4922C66.0969 23.5547 66.1516 23.4141 66.2453 23.0703C66.4641 22.2578 66.4641 21.3203 66.2453 20.2578C66.1516 19.8516 66.0812 19.2266 66.0344 18.3828C65.9562 17.2422 65.9172 16.6328 65.9172 16.5547C65.9016 16.3203 65.8625 15.7109 65.8 14.7266C65.7531 14.0547 65.6828 13.4844 65.5891 13.0156C65.5734 12.9062 65.5422 12.5703 65.4953 12.0078C65.4641 11.6016 65.3781 11.2734 65.2375 11.0234C65.2062 10.9609 65.1359 10.8828 65.0266 10.7891C64.8859 10.6641 64.8 10.5781 64.7687 10.5312C64.5031 10.5312 64.3625 10.5312 64.3469 10.5312C64.3625 10.5156 64.1984 10.6562 63.8547 10.9531C63.9328 11.3281 64.0422 11.5703 64.1828 11.6797C64.1828 11.7578 64.0969 12.0312 63.925 12.5C63.7375 12.3906 63.6281 11.9766 63.5969 11.2578C63.4406 11.3672 63.3 11.4297 63.175 11.4453C63.0969 11.6484 63.0187 11.7812 62.9406 11.8438C62.9406 12.0469 62.9562 12.2578 62.9875 12.4766C63.0187 12.6953 63.0266 12.8203 63.0109 12.8516C63.0266 13.1484 63.0031 13.3359 62.9406 13.4141V13.5078H62.7766C62.5266 11.8984 62.4172 11.1797 62.4484 11.3516C62.3234 10.7891 62.3781 10.4063 62.6125 10.2031C62.6125 9.90625 62.5578 9.70313 62.4484 9.59375C62.4172 9.57812 62.3547 9.53906 62.2609 9.47656C62.1672 9.41406 62.0969 9.35156 62.05 9.28906C61.8625 9.05469 61.8312 8.86719 61.9562 8.72656C61.9406 8.57031 61.8781 8.39844 61.7687 8.21094C61.3156 8.24219 61.0969 8.24219 61.1125 8.21094C61.175 8.19531 61.0734 8.28125 60.8078 8.46875C60.8078 8.46875 60.8937 8.75 61.0656 9.3125C61.175 9.67187 61.1672 9.99219 61.0422 10.2734C61.0266 10.3047 60.9719 10.375 60.8781 10.4844C60.7844 10.5781 60.7297 10.6484 60.7141 10.6953C60.6828 10.7891 60.6828 11.4453 60.7141 12.6641C60.9016 12.7266 60.9797 12.7578 60.9484 12.7578V13.0859C60.9953 13.1172 61.05 13.1484 61.1125 13.1797C61.1437 13.2734 61.1359 13.4766 61.0891 13.7891C61.0422 14.1016 61.05 14.3594 61.1125 14.5625C61.175 14.7188 61.2687 14.9453 61.3937 15.2422C61.5656 15.5859 61.6672 15.8047 61.6984 15.8984C61.5734 16.3672 61.5734 16.7578 61.6984 17.0703C61.7141 17.0703 61.7687 17.1641 61.8625 17.3516C61.9719 17.5234 62.0344 17.6484 62.05 17.7266C62.0656 17.8516 62.0187 18.0156 61.9094 18.2188C61.8156 18.4219 61.7687 18.5859 61.7687 18.7109C61.8156 18.8516 61.8781 18.9609 61.9562 19.0391C62.0812 19.1641 62.1359 19.2188 62.1203 19.2031C62.0734 19.5625 62.05 19.8359 62.05 20.0234C62.1437 20.1016 62.2219 20.1562 62.2844 20.1875C62.3 20.2344 62.2609 20.3984 62.1672 20.6797C62.0891 20.9609 62.0734 21.1562 62.1203 21.2656C62.1203 21.2812 62.1594 21.3203 62.2375 21.3828C62.3156 21.4453 62.3547 21.4844 62.3547 21.5C62.2609 21.875 62.3781 22.4297 62.7062 23.1641C62.5344 23.6641 62.4484 23.9141 62.4484 23.9141C62.4328 24.0391 62.4641 24.1875 62.5422 24.3594C62.6359 24.5625 62.6906 24.6875 62.7062 24.7344C62.7062 24.75 62.675 24.9688 62.6125 25.3906C62.6281 25.5156 62.6672 25.7266 62.7297 26.0234C62.7922 26.3359 62.8391 26.5391 62.8703 26.6328C62.9016 26.8516 62.8859 27.25 62.8234 27.8281C62.7609 28.4062 62.7453 28.7812 62.7766 28.9531C62.8703 29.5312 62.9016 29.8828 62.8703 30.0078C62.7922 30.2109 62.7062 30.5312 62.6125 30.9688C62.5344 31.4531 62.4797 31.7422 62.4484 31.8359V32.4922C62.4328 32.5078 62.3937 32.5547 62.3312 32.6328C62.2531 32.7266 62.2062 32.7891 62.1906 32.8203C62.2062 32.8672 62.2219 32.9375 62.2375 33.0312C62.2531 33.125 62.2687 33.1953 62.2844 33.2422C62.2531 33.3516 62.1984 33.5625 62.1203 33.875C62.0266 34.1719 61.9719 34.375 61.9562 34.4844C61.9562 34.5312 61.9641 34.625 61.9797 34.7656C62.0109 34.8906 62.0344 34.9922 62.05 35.0703C61.8781 35.1641 61.7844 35.2109 61.7687 35.2109C61.7375 35.3203 61.6984 35.4922 61.6516 35.7266C61.5891 36.0078 61.55 36.1641 61.5344 36.1953C61.675 36.7578 61.6516 37.2578 61.4641 37.6953C61.0422 38.6797 60.8469 39.3125 60.8781 39.5938C60.7687 39.6406 60.6594 39.6641 60.55 39.6641C60.675 40.0078 60.7297 40.2266 60.7141 40.3203C60.6516 40.6016 60.4172 41.1016 60.0109 41.8203C59.6203 42.5703 59.3312 43.0078 59.1437 43.1328C58.8312 43.1953 58.6672 43.2266 58.6516 43.2266C58.6047 43.2891 58.55 43.3984 58.4875 43.5547C58.3937 43.5703 58.2062 43.5938 57.925 43.625C57.8469 43.7344 57.7844 43.8203 57.7375 43.8828C57.2531 43.9141 56.8469 43.9453 56.5187 43.9766C56.3312 44.1016 56.1359 44.2344 55.9328 44.375C55.9328 44.6719 55.9953 44.8594 56.1203 44.9375C56.2297 45.0156 56.4406 45.0469 56.7531 45.0312C56.8469 45.2656 57.0109 45.5156 57.2453 45.7812H57.175C56.9875 45.8906 56.7141 45.7812 56.3547 45.4531C55.9016 45.0312 55.6437 44.8125 55.5812 44.7969C55.5969 44.75 55.6125 44.6797 55.6281 44.5859C55.6594 44.4922 55.675 44.4219 55.675 44.375C55.3781 44.3281 55.1281 44.1875 54.925 43.9531C54.8937 43.9062 54.8234 43.7969 54.7141 43.625C54.6047 43.4844 54.5187 43.3828 54.4562 43.3203C54.3937 43.2578 54.2609 43.1641 54.0578 43.0391C53.8859 42.9141 53.7687 42.8125 53.7062 42.7344C53.6125 42.6094 53.4172 42.3359 53.1203 41.9141C52.8859 41.5859 52.6906 41.3047 52.5344 41.0703C52.5031 41.0234 52.425 40.9609 52.3 40.8828C52.175 40.8047 52.0891 40.7344 52.0422 40.6719C51.9016 40.4375 51.7375 40.0938 51.55 39.6406C51.3625 39.1562 51.1984 38.7812 51.0578 38.5156C50.9484 38.3438 50.7844 38.0938 50.5656 37.7656C50.3 37.3906 50.1281 37.1484 50.05 37.0391C50.05 36.9766 50.0422 36.8828 50.0266 36.7578C49.9953 36.6172 49.9797 36.5156 49.9797 36.4531C49.9641 36.4062 49.8937 36.3203 49.7687 36.1953C49.6437 36.0859 49.5812 36.0078 49.5812 35.9609C49.5656 35.8984 49.55 35.7734 49.5344 35.5859C49.5031 35.4297 49.4875 35.3047 49.4875 35.2109C49.3781 34.9922 49.1672 34.6562 48.8547 34.2031C48.5734 33.7344 48.3703 33.3828 48.2453 33.1484C48.1984 33.0547 48.1594 32.9062 48.1281 32.7031C48.0969 32.5 48.05 32.3516 47.9875 32.2578C47.9719 32.1953 47.8937 32.1016 47.7531 31.9766C47.6125 31.8516 47.5344 31.75 47.5187 31.6719C47.6125 31.2656 47.4953 30.2188 47.1672 28.5312C47.1516 28.4844 47.175 28.375 47.2375 28.2031C47.2844 28.0312 47.2844 27.8906 47.2375 27.7812C47.0812 27.0781 46.9875 26.1016 46.9562 24.8516C46.925 23.3359 46.8859 22.4141 46.8391 22.0859C46.8234 21.9609 46.8469 21.7109 46.9094 21.3359C46.9719 20.9297 47.0031 20.6875 47.0031 20.6094C46.9719 18.7969 47.0812 17.5234 47.3312 16.7891C47.2375 16.3672 47.3234 15.6016 47.5891 14.4922C47.6203 14.3516 47.6047 14.125 47.5422 13.8125C47.4953 13.5 47.4875 13.3125 47.5187 13.25C47.5187 13.2188 47.5656 13.1484 47.6594 13.0391C47.7531 12.9453 47.8078 12.8828 47.8234 12.8516V12.1953C48.1047 11.2734 48.2453 10.8047 48.2453 10.7891V10.2734C48.4641 9.83594 48.5734 9.61719 48.5734 9.61719C48.5578 9.53906 48.5109 9.42188 48.4328 9.26562C48.3234 9.07812 48.2609 8.95313 48.2453 8.89062H47.6594C47.6437 8.71875 47.6203 8.60156 47.5891 8.53906V8.375C47.3547 8.375 46.9953 8.54687 46.5109 8.89062C46.4797 10.3438 46.3703 11.1953 46.1828 11.4453C46.1516 11.4766 46.1281 11.5078 46.1125 11.5391C46.05 11.3828 46.0422 11.1328 46.0891 10.7891C46.1359 10.4141 46.1437 10.1328 46.1125 9.94531C46.0656 9.80469 45.9953 9.63281 45.9016 9.42969C45.7922 9.19531 45.7219 9.03906 45.6906 8.96094C45.5344 8.94531 45.425 8.92187 45.3625 8.89062C45.3781 8.875 45.2141 8.97656 44.8703 9.19531C44.9016 9.46094 44.925 9.63281 44.9406 9.71094C44.55 9.61719 44.3078 9.53125 44.2141 9.45312C44.0109 9.46875 43.7844 9.63281 43.5344 9.94531C43.55 10.0078 43.5969 10.1172 43.675 10.2734C43.7219 10.3672 43.7297 10.4766 43.6984 10.6016C43.5266 11.4766 43.4484 11.9219 43.4641 11.9375C43.5891 12.2969 43.6437 12.5391 43.6281 12.6641C43.6125 12.7266 43.5734 12.7891 43.5109 12.8516C43.4641 12.9297 43.4484 13.0078 43.4641 13.0859C43.4641 13.0547 43.5969 13.5781 43.8625 14.6562C43.925 14.8906 43.9328 15.2344 43.8859 15.6875C43.8547 16.1562 43.8469 16.4453 43.8625 16.5547L44.05 16.6484C44.0187 16.7266 44.0422 17.0547 44.1203 17.6328C44.0422 18.3203 43.9875 18.7891 43.9562 19.0391C44.0969 19.5391 44.1906 20.2734 44.2375 21.2422C44.2844 22.3516 44.3234 23.0234 44.3547 23.2578C44.3859 23.3359 44.4094 24.1172 44.425 25.6016C44.4562 26.7109 44.6047 27.3828 44.8703 27.6172C44.9172 27.6484 44.9953 27.6797 45.1047 27.7109C45.0266 29.7422 45.3 31.6094 45.925 33.3125C45.9875 33.4688 46.0187 33.7031 46.0187 34.0156C46.0031 34.3281 46.0031 34.5078 46.0187 34.5547C46.05 34.6484 46.1203 34.8047 46.2297 35.0234C46.3391 35.2422 46.4016 35.3906 46.4172 35.4688C46.3859 35.7031 46.4172 35.8906 46.5109 36.0312C46.5422 36.0781 46.5812 36.125 46.6281 36.1719C46.6906 36.2344 46.7375 36.2734 46.7687 36.2891C46.9562 36.2734 47.0812 36.2422 47.1437 36.1953C47.2062 36.1328 47.2375 36 47.2375 35.7969H47.3312C47.4562 36.0938 47.7062 36.4766 48.0812 36.9453C48.0812 37.0078 48.0969 37.0781 48.1281 37.1562C48.1437 37.2656 48.1594 37.3359 48.175 37.3672C48.1906 37.3672 48.2453 37.3828 48.3391 37.4141C48.4016 37.4141 48.4562 37.4219 48.5031 37.4375C48.5656 37.5156 48.5969 37.6328 48.5969 37.7891C48.5969 37.9766 48.6125 38.1094 48.6437 38.1875C48.7375 38.3594 48.9328 38.6016 49.2297 38.9141C49.5578 39.2422 49.7531 39.4688 49.8156 39.5938V39.9219C49.8937 40.0625 50.1281 40.3203 50.5187 40.6953C50.8625 41.0078 51.0656 41.2969 51.1281 41.5625H51.55C51.6125 42.0312 52.05 42.6328 52.8625 43.3672C53.7375 44.1484 54.2375 44.7031 54.3625 45.0312C54.3937 45.0781 54.425 45.1641 54.4562 45.2891C54.6437 45.2734 54.7766 45.2188 54.8547 45.125C54.7609 45.0938 54.925 45.2891 55.3469 45.7109C55.3781 45.7266 55.925 46.0234 56.9875 46.6016C57.0187 46.6016 57.0891 46.5938 57.1984 46.5781C57.3078 46.5469 57.4016 46.5312 57.4797 46.5312C57.4953 46.2031 57.4484 46.0078 57.3391 45.9453V45.8516C58.7922 45.8516 59.8078 45.5547 60.3859 44.9609C60.4641 44.8516 60.5344 44.6797 60.5969 44.4453C60.675 44.1797 60.7453 43.9922 60.8078 43.8828C61.9484 41.9766 62.9641 39.5312 63.8547 36.5469C63.9016 36.4062 63.9016 36.2656 63.8547 36.125C63.8391 35.9844 63.8391 35.875 63.8547 35.7969C63.8703 35.7031 63.925 35.5234 64.0187 35.2578C64.0969 34.9922 64.1516 34.8125 64.1828 34.7188V34.0625C64.2297 34.0469 64.3078 34.0156 64.4172 33.9688C64.4953 33.8438 64.55 33.4844 64.5812 32.8906C64.6125 32.2812 64.675 31.8984 64.7687 31.7422V31.6719H64.8391C64.8859 32.3125 64.8312 32.75 64.675 32.9844C64.7219 33.0625 64.8078 33.1172 64.9328 33.1484C64.6359 33.7266 64.5187 34.4453 64.5812 35.3047H64.3469C64.3781 35.9453 64.3 36.4375 64.1125 36.7812C64.0969 36.7969 64.05 36.8359 63.9719 36.8984C63.8937 36.9609 63.8547 37.0078 63.8547 37.0391C63.8547 37.0859 63.8703 37.1484 63.9016 37.2266C63.9172 37.3203 63.925 37.3906 63.925 37.4375C63.7844 38.2969 63.5344 38.9062 63.175 39.2656C63.1906 39.4062 63.2219 39.5391 63.2687 39.6641C63.7219 39.6641 64.0187 39.4688 64.1594 39.0781C64.1906 38.9688 64.2375 38.7891 64.3 38.5391C64.3469 38.2734 64.3859 38.0781 64.4172 37.9531C64.4641 37.8438 64.55 37.6953 64.675 37.5078C64.8 37.3047 64.8859 37.1484 64.9328 37.0391V36.3828C64.9484 36.3203 65.0187 36.1172 65.1437 35.7734C65.2375 35.4609 65.3 35.25 65.3312 35.1406C65.4406 34.8281 65.5031 34.3984 65.5187 33.8516C65.5344 33.2891 65.5812 32.8594 65.6594 32.5625C65.6906 32.4688 65.7297 32.2734 65.7766 31.9766C65.8391 31.6641 65.8859 31.4219 65.9172 31.25V29.6797C66.4328 27.1953 66.4875 25.1328 66.0812 23.4922ZM95.0922 30.1016H94.9281V29.7734H95.0922V30.1016ZM95.0219 30.5938C94.9906 30.6406 94.9359 30.75 94.8578 30.9219H94.7641C94.7797 30.8125 94.8031 30.6953 94.8344 30.5703C94.8812 30.4297 94.9125 30.3281 94.9281 30.2656C95.0062 30.3594 95.0375 30.4688 95.0219 30.5938ZM94.5062 23.7266C94.4594 23.4297 94.4437 23 94.4594 22.4375C94.475 21.8906 94.4359 21.4453 94.3422 21.1016C94.2328 20.5391 94.1859 20.2109 94.2016 20.1172C94.3109 19.2578 94.3344 18.6172 94.2719 18.1953C93.9281 15.8047 93.7641 14.1016 93.7797 13.0859C93.8734 13.1797 94.0375 13.7266 94.2719 14.7266C94.2562 14.7891 94.2406 14.8594 94.225 14.9375C94.2094 15.0469 94.2016 15.1172 94.2016 15.1484C94.2172 15.1797 94.2875 15.3203 94.4125 15.5703C94.5375 15.7891 94.6 15.9531 94.6 16.0625C94.6 16.1406 94.5609 16.2578 94.4828 16.4141C94.4047 16.5703 94.3891 16.7266 94.4359 16.8828C94.4359 16.9141 94.475 16.9766 94.5531 17.0703C94.6312 17.1484 94.6781 17.1953 94.6937 17.2109C94.6312 17.3828 94.6547 17.6875 94.7641 18.125C94.7797 18.2188 94.7484 18.4609 94.6703 18.8516C94.5609 19.1953 94.5375 19.4219 94.6 19.5312H94.7641C94.7172 19.7812 94.6937 19.9766 94.6937 20.1172C94.6937 20.1172 94.7172 20.1953 94.7641 20.3516C94.8266 20.5078 94.8578 20.5938 94.8578 20.6094C94.8734 20.7031 94.8422 20.8203 94.7641 20.9609C94.6547 21.1172 94.6 21.2188 94.6 21.2656C94.5531 21.4688 94.5531 21.8594 94.6 22.4375C94.6625 23.0312 94.7172 23.3594 94.7641 23.4219V23.6562C94.6859 23.6875 94.6312 23.7109 94.6 23.7266H94.5062ZM94.5062 23.8203C94.5687 23.8828 94.6 23.9922 94.6 24.1484C94.5531 24.0859 94.5219 23.9766 94.5062 23.8203ZM94.6 24.5703C94.5531 24.5859 94.5219 24.5547 94.5062 24.4766H94.4359C94.4672 24.4297 94.4906 24.375 94.5062 24.3125H94.6V24.5703ZM94.4359 24.8984C94.5141 24.9297 94.5687 24.9531 94.6 24.9688C94.5219 24.9531 94.4672 24.9297 94.4359 24.8984ZM94.5062 25.6484C94.475 25.6016 94.4516 25.5156 94.4359 25.3906H94.5062V25.6484ZM93.3812 23.6562H93.1937V23.3281C93.2094 23.3438 93.2406 23.3828 93.2875 23.4453C93.3187 23.5078 93.35 23.5469 93.3812 23.5625V23.6562ZM93.3812 25.0625H93.2875V24.8984H93.3812V25.0625ZM76.0375 13.6719C76.0062 13.6875 75.975 13.7109 75.9437 13.7422C75.9281 13.7109 75.9281 13.3828 75.9437 12.7578H76.1078C76.1234 13.2578 76.1 13.5625 76.0375 13.6719ZM76.0375 13.8359V14.0703C75.9906 14.0234 75.9594 13.9453 75.9437 13.8359H76.0375ZM76.1078 14.5625H76.0375V14.9141H75.9437C75.9281 14.8359 75.9281 14.6719 75.9437 14.4219C75.975 14.4375 76.0062 14.4609 76.0375 14.4922H76.1078V14.5625ZM75.85 18.2891L75.7797 17.7969H76.0375V17.9609H76.1078C76.0609 18.1172 75.975 18.2578 75.85 18.3828V18.2891ZM76.0375 15.3828V17.2109H75.85V16.3203C75.85 16.0234 75.85 15.7109 75.85 15.3828H76.0375ZM75.9437 12.1953H76.1078C76.0922 12.3516 76.0687 12.4531 76.0375 12.5V12.6641H75.9437V12.1953ZM74.6312 14.9141H74.5375C74.5375 14.5859 74.5375 14.0547 74.5375 13.3203C74.5375 12.6797 74.5375 12.1328 74.5375 11.6797C74.6 11.7422 74.6547 11.8281 74.7016 11.9375C74.8891 13.5 74.8656 14.4609 74.6312 14.8203V14.9141ZM74.6312 11.1875H74.7016V11.3516H74.6312V11.1875ZM96.0062 23.4922C96.0219 23.5547 96.0766 23.4141 96.1703 23.0703C96.3891 22.2578 96.3891 21.3203 96.1703 20.2578C96.0766 19.8516 96.0062 19.2266 95.9594 18.3828C95.8812 17.2422 95.8422 16.6328 95.8422 16.5547C95.8266 16.3203 95.7875 15.7109 95.725 14.7266C95.6781 14.0547 95.6078 13.4844 95.5141 13.0156C95.4984 12.9062 95.4672 12.5703 95.4203 12.0078C95.3891 11.6016 95.3031 11.2734 95.1625 11.0234C95.1312 10.9609 95.0609 10.8828 94.9516 10.7891C94.8109 10.6641 94.725 10.5781 94.6937 10.5312C94.4281 10.5312 94.2875 10.5312 94.2719 10.5312C94.2875 10.5156 94.1234 10.6562 93.7797 10.9531C93.8578 11.3281 93.9672 11.5703 94.1078 11.6797C94.1078 11.7578 94.0219 12.0312 93.85 12.5C93.6625 12.3906 93.5531 11.9766 93.5219 11.2578C93.3656 11.3672 93.225 11.4297 93.1 11.4453C93.0219 11.6484 92.9437 11.7812 92.8656 11.8438C92.8656 12.0469 92.8812 12.2578 92.9125 12.4766C92.9437 12.6953 92.9516 12.8203 92.9359 12.8516C92.9516 13.1484 92.9281 13.3359 92.8656 13.4141V13.5078H92.7016C92.4516 11.8984 92.3422 11.1797 92.3734 11.3516C92.2484 10.7891 92.3031 10.4063 92.5375 10.2031C92.5375 9.90625 92.4828 9.70313 92.3734 9.59375C92.3422 9.57812 92.2797 9.53906 92.1859 9.47656C92.0922 9.41406 92.0219 9.35156 91.975 9.28906C91.7875 9.05469 91.7562 8.86719 91.8812 8.72656C91.8656 8.57031 91.8031 8.39844 91.6937 8.21094C91.2406 8.24219 91.0219 8.24219 91.0375 8.21094C91.1 8.19531 90.9984 8.28125 90.7328 8.46875C90.7328 8.46875 90.8187 8.75 90.9906 9.3125C91.1 9.67187 91.0922 9.99219 90.9672 10.2734C90.9516 10.3047 90.8969 10.375 90.8031 10.4844C90.7094 10.5781 90.6547 10.6484 90.6391 10.6953C90.6078 10.7891 90.6078 11.4453 90.6391 12.6641C90.8266 12.7266 90.9047 12.7578 90.8734 12.7578V13.0859C90.9203 13.1172 90.975 13.1484 91.0375 13.1797C91.0687 13.2734 91.0609 13.4766 91.0141 13.7891C90.9672 14.1016 90.975 14.3594 91.0375 14.5625C91.1 14.7188 91.1937 14.9453 91.3187 15.2422C91.4906 15.5859 91.5922 15.8047 91.6234 15.8984C91.4984 16.3672 91.4984 16.7578 91.6234 17.0703C91.6391 17.0703 91.6937 17.1641 91.7875 17.3516C91.8969 17.5234 91.9594 17.6484 91.975 17.7266C91.9906 17.8516 91.9437 18.0156 91.8344 18.2188C91.7406 18.4219 91.6937 18.5859 91.6937 18.7109C91.7406 18.8516 91.8031 18.9609 91.8812 19.0391C92.0062 19.1641 92.0609 19.2188 92.0453 19.2031C91.9984 19.5625 91.975 19.8359 91.975 20.0234C92.0687 20.1016 92.1469 20.1562 92.2094 20.1875C92.225 20.2344 92.1859 20.3984 92.0922 20.6797C92.0141 20.9609 91.9984 21.1562 92.0453 21.2656C92.0453 21.2812 92.0844 21.3203 92.1625 21.3828C92.2406 21.4453 92.2797 21.4844 92.2797 21.5C92.1859 21.875 92.3031 22.4297 92.6312 23.1641C92.4594 23.6641 92.3734 23.9141 92.3734 23.9141C92.3578 24.0391 92.3891 24.1875 92.4672 24.3594C92.5609 24.5625 92.6156 24.6875 92.6312 24.7344C92.6312 24.75 92.6 24.9688 92.5375 25.3906C92.5531 25.5156 92.5922 25.7266 92.6547 26.0234C92.7172 26.3359 92.7641 26.5391 92.7953 26.6328C92.8266 26.8516 92.8109 27.25 92.7484 27.8281C92.6859 28.4062 92.6703 28.7812 92.7016 28.9531C92.7953 29.5312 92.8266 29.8828 92.7953 30.0078C92.7172 30.2109 92.6312 30.5312 92.5375 30.9688C92.4594 31.4531 92.4047 31.7422 92.3734 31.8359V32.4922C92.3578 32.5078 92.3187 32.5547 92.2562 32.6328C92.1781 32.7266 92.1312 32.7891 92.1156 32.8203C92.1312 32.8672 92.1469 32.9375 92.1625 33.0312C92.1781 33.125 92.1937 33.1953 92.2094 33.2422C92.1781 33.3516 92.1234 33.5625 92.0453 33.875C91.9516 34.1719 91.8969 34.375 91.8812 34.4844C91.8812 34.5312 91.8891 34.625 91.9047 34.7656C91.9359 34.8906 91.9594 34.9922 91.975 35.0703C91.8031 35.1641 91.7094 35.2109 91.6937 35.2109C91.6625 35.3203 91.6234 35.4922 91.5766 35.7266C91.5141 36.0078 91.475 36.1641 91.4594 36.1953C91.6 36.7578 91.5766 37.2578 91.3891 37.6953C90.9672 38.6797 90.7719 39.3125 90.8031 39.5938C90.6937 39.6406 90.5844 39.6641 90.475 39.6641C90.6 40.0078 90.6547 40.2266 90.6391 40.3203C90.5766 40.6016 90.3422 41.1016 89.9359 41.8203C89.5453 42.5703 89.2562 43.0078 89.0687 43.1328C88.7562 43.1953 88.5922 43.2266 88.5766 43.2266C88.5297 43.2891 88.475 43.3984 88.4125 43.5547C88.3187 43.5703 88.1312 43.5938 87.85 43.625C87.7719 43.7344 87.7094 43.8203 87.6625 43.8828C87.1781 43.9141 86.7719 43.9453 86.4437 43.9766C86.2562 44.1016 86.0609 44.2344 85.8578 44.375C85.8578 44.6719 85.9203 44.8594 86.0453 44.9375C86.1547 45.0156 86.3656 45.0469 86.6781 45.0312C86.7719 45.2656 86.9359 45.5156 87.1703 45.7812H87.1C86.9125 45.8906 86.6391 45.7812 86.2797 45.4531C85.8266 45.0312 85.5687 44.8125 85.5062 44.7969C85.5219 44.75 85.5375 44.6797 85.5531 44.5859C85.5844 44.4922 85.6 44.4219 85.6 44.375C85.3031 44.3281 85.0531 44.1875 84.85 43.9531C84.8187 43.9062 84.7484 43.7969 84.6391 43.625C84.5297 43.4844 84.4437 43.3828 84.3812 43.3203C84.3187 43.2578 84.1859 43.1641 83.9828 43.0391C83.8109 42.9141 83.6937 42.8125 83.6312 42.7344C83.5375 42.6094 83.3422 42.3359 83.0453 41.9141C82.8109 41.5859 82.6156 41.3047 82.4594 41.0703C82.4281 41.0234 82.35 40.9609 82.225 40.8828C82.1 40.8047 82.0141 40.7344 81.9672 40.6719C81.8266 40.4375 81.6625 40.0938 81.475 39.6406C81.2875 39.1562 81.1234 38.7812 80.9828 38.5156C80.8734 38.3438 80.7094 38.0938 80.4906 37.7656C80.225 37.3906 80.0531 37.1484 79.975 37.0391C79.975 36.9766 79.9672 36.8828 79.9516 36.7578C79.9203 36.6172 79.9047 36.5156 79.9047 36.4531C79.8891 36.4062 79.8187 36.3203 79.6937 36.1953C79.5687 36.0859 79.5062 36.0078 79.5062 35.9609C79.4906 35.8984 79.475 35.7734 79.4594 35.5859C79.4281 35.4297 79.4125 35.3047 79.4125 35.2109C79.3031 34.9922 79.0922 34.6562 78.7797 34.2031C78.4984 33.7344 78.2953 33.3828 78.1703 33.1484C78.1234 33.0547 78.0844 32.9062 78.0531 32.7031C78.0219 32.5 77.975 32.3516 77.9125 32.2578C77.8969 32.1953 77.8187 32.1016 77.6781 31.9766C77.5375 31.8516 77.4594 31.75 77.4437 31.6719C77.5375 31.2656 77.4203 30.2188 77.0922 28.5312C77.0766 28.4844 77.1 28.375 77.1625 28.2031C77.2094 28.0312 77.2094 27.8906 77.1625 27.7812C77.0062 27.0781 76.9125 26.1016 76.8812 24.8516C76.85 23.3359 76.8109 22.4141 76.7641 22.0859C76.7484 21.9609 76.7719 21.7109 76.8344 21.3359C76.8969 20.9297 76.9281 20.6875 76.9281 20.6094C76.8969 18.7969 77.0062 17.5234 77.2562 16.7891C77.1625 16.3672 77.2484 15.6016 77.5141 14.4922C77.5453 14.3516 77.5297 14.125 77.4672 13.8125C77.4203 13.5 77.4125 13.3125 77.4437 13.25C77.4437 13.2188 77.4906 13.1484 77.5844 13.0391C77.6781 12.9453 77.7328 12.8828 77.7484 12.8516V12.1953C78.0297 11.2734 78.1703 10.8047 78.1703 10.7891V10.2734C78.3891 9.83594 78.4984 9.61719 78.4984 9.61719C78.4828 9.53906 78.4359 9.42188 78.3578 9.26562C78.2484 9.07812 78.1859 8.95313 78.1703 8.89062H77.5844C77.5687 8.71875 77.5453 8.60156 77.5141 8.53906V8.375C77.2797 8.375 76.9203 8.54687 76.4359 8.89062C76.4047 10.3438 76.2953 11.1953 76.1078 11.4453C76.0766 11.4766 76.0531 11.5078 76.0375 11.5391C75.975 11.3828 75.9672 11.1328 76.0141 10.7891C76.0609 10.4141 76.0687 10.1328 76.0375 9.94531C75.9906 9.80469 75.9203 9.63281 75.8266 9.42969C75.7172 9.19531 75.6469 9.03906 75.6156 8.96094C75.4594 8.94531 75.35 8.92187 75.2875 8.89062C75.3031 8.875 75.1391 8.97656 74.7953 9.19531C74.8266 9.46094 74.85 9.63281 74.8656 9.71094C74.475 9.61719 74.2328 9.53125 74.1391 9.45312C73.9359 9.46875 73.7094 9.63281 73.4594 9.94531C73.475 10.0078 73.5219 10.1172 73.6 10.2734C73.6469 10.3672 73.6547 10.4766 73.6234 10.6016C73.4516 11.4766 73.3734 11.9219 73.3891 11.9375C73.5141 12.2969 73.5687 12.5391 73.5531 12.6641C73.5375 12.7266 73.4984 12.7891 73.4359 12.8516C73.3891 12.9297 73.3734 13.0078 73.3891 13.0859C73.3891 13.0547 73.5219 13.5781 73.7875 14.6562C73.85 14.8906 73.8578 15.2344 73.8109 15.6875C73.7797 16.1562 73.7719 16.4453 73.7875 16.5547L73.975 16.6484C73.9437 16.7266 73.9672 17.0547 74.0453 17.6328C73.9672 18.3203 73.9125 18.7891 73.8812 19.0391C74.0219 19.5391 74.1156 20.2734 74.1625 21.2422C74.2094 22.3516 74.2484 23.0234 74.2797 23.2578C74.3109 23.3359 74.3344 24.1172 74.35 25.6016C74.3812 26.7109 74.5297 27.3828 74.7953 27.6172C74.8422 27.6484 74.9203 27.6797 75.0297 27.7109C74.9516 29.7422 75.225 31.6094 75.85 33.3125C75.9125 33.4688 75.9437 33.7031 75.9437 34.0156C75.9281 34.3281 75.9281 34.5078 75.9437 34.5547C75.975 34.6484 76.0453 34.8047 76.1547 35.0234C76.2641 35.2422 76.3266 35.3906 76.3422 35.4688C76.3109 35.7031 76.3422 35.8906 76.4359 36.0312C76.4672 36.0781 76.5062 36.125 76.5531 36.1719C76.6156 36.2344 76.6625 36.2734 76.6937 36.2891C76.8812 36.2734 77.0062 36.2422 77.0687 36.1953C77.1312 36.1328 77.1625 36 77.1625 35.7969H77.2562C77.3812 36.0938 77.6312 36.4766 78.0062 36.9453C78.0062 37.0078 78.0219 37.0781 78.0531 37.1562C78.0687 37.2656 78.0844 37.3359 78.1 37.3672C78.1156 37.3672 78.1703 37.3828 78.2641 37.4141C78.3266 37.4141 78.3812 37.4219 78.4281 37.4375C78.4906 37.5156 78.5219 37.6328 78.5219 37.7891C78.5219 37.9766 78.5375 38.1094 78.5687 38.1875C78.6625 38.3594 78.8578 38.6016 79.1547 38.9141C79.4828 39.2422 79.6781 39.4688 79.7406 39.5938V39.9219C79.8187 40.0625 80.0531 40.3203 80.4437 40.6953C80.7875 41.0078 80.9906 41.2969 81.0531 41.5625H81.475C81.5375 42.0312 81.975 42.6328 82.7875 43.3672C83.6625 44.1484 84.1625 44.7031 84.2875 45.0312C84.3187 45.0781 84.35 45.1641 84.3812 45.2891C84.5687 45.2734 84.7016 45.2188 84.7797 45.125C84.6859 45.0938 84.85 45.2891 85.2719 45.7109C85.3031 45.7266 85.85 46.0234 86.9125 46.6016C86.9437 46.6016 87.0141 46.5938 87.1234 46.5781C87.2328 46.5469 87.3266 46.5312 87.4047 46.5312C87.4203 46.2031 87.3734 46.0078 87.2641 45.9453V45.8516C88.7172 45.8516 89.7328 45.5547 90.3109 44.9609C90.3891 44.8516 90.4594 44.6797 90.5219 44.4453C90.6 44.1797 90.6703 43.9922 90.7328 43.8828C91.8734 41.9766 92.8891 39.5312 93.7797 36.5469C93.8266 36.4062 93.8266 36.2656 93.7797 36.125C93.7641 35.9844 93.7641 35.875 93.7797 35.7969C93.7953 35.7031 93.85 35.5234 93.9437 35.2578C94.0219 34.9922 94.0766 34.8125 94.1078 34.7188V34.0625C94.1547 34.0469 94.2328 34.0156 94.3422 33.9688C94.4203 33.8438 94.475 33.4844 94.5062 32.8906C94.5375 32.2812 94.6 31.8984 94.6937 31.7422V31.6719H94.7641C94.8109 32.3125 94.7562 32.75 94.6 32.9844C94.6469 33.0625 94.7328 33.1172 94.8578 33.1484C94.5609 33.7266 94.4437 34.4453 94.5062 35.3047H94.2719C94.3031 35.9453 94.225 36.4375 94.0375 36.7812C94.0219 36.7969 93.975 36.8359 93.8969 36.8984C93.8187 36.9609 93.7797 37.0078 93.7797 37.0391C93.7797 37.0859 93.7953 37.1484 93.8266 37.2266C93.8422 37.3203 93.85 37.3906 93.85 37.4375C93.7094 38.2969 93.4594 38.9062 93.1 39.2656C93.1156 39.4062 93.1469 39.5391 93.1937 39.6641C93.6469 39.6641 93.9437 39.4688 94.0844 39.0781C94.1156 38.9688 94.1625 38.7891 94.225 38.5391C94.2719 38.2734 94.3109 38.0781 94.3422 37.9531C94.3891 37.8438 94.475 37.6953 94.6 37.5078C94.725 37.3047 94.8109 37.1484 94.8578 37.0391V36.3828C94.8734 36.3203 94.9437 36.1172 95.0687 35.7734C95.1625 35.4609 95.225 35.25 95.2562 35.1406C95.3656 34.8281 95.4281 34.3984 95.4437 33.8516C95.4594 33.2891 95.5062 32.8594 95.5844 32.5625C95.6156 32.4688 95.6547 32.2734 95.7016 31.9766C95.7641 31.6641 95.8109 31.4219 95.8422 31.25V29.6797C96.3578 27.1953 96.4125 25.1328 96.0062 23.4922ZM125.158 29.3984H125.088L124.994 29.4922V29.3984H124.83V29.1406C124.908 29.1875 125.017 29.25 125.158 29.3281V29.3984ZM123.634 28.5547H123.963C124.025 28.6328 124.142 28.7422 124.314 28.8828C124.47 29.0078 124.58 29.125 124.642 29.2344C124.548 29.1875 124.384 29.0938 124.15 28.9531C123.963 28.8281 123.791 28.75 123.634 28.7188V28.5547ZM123.213 28.4609C123.291 28.4922 123.345 28.5234 123.377 28.5547C123.298 28.5234 123.244 28.4922 123.213 28.4609ZM122.017 44.3516C121.877 43.9766 121.814 43.8047 121.83 43.8359C121.814 43.7891 121.791 43.7344 121.759 43.6719C121.791 43.6562 121.728 43.7109 121.572 43.8359V43.9297C121.619 43.9453 121.564 43.8828 121.408 43.7422C121.423 43.5391 121.478 43.3984 121.572 43.3203C121.634 43.2422 121.673 43.2109 121.689 43.2266C121.736 43.2891 121.814 43.3203 121.923 43.3203C121.908 43.1172 121.877 42.9766 121.83 42.8984C121.845 42.6172 121.845 42.4688 121.83 42.4531C121.814 42.4062 121.728 42.3828 121.572 42.3828C121.603 42.3047 121.634 42.25 121.666 42.2188C121.619 42.1875 121.533 42.1562 121.408 42.125V41.8672C121.533 41.8984 121.619 41.9297 121.666 41.9609H121.83C121.892 40.7734 121.697 40.2031 121.244 40.25V40.0859C121.525 40.0078 121.697 39.8906 121.759 39.7344C121.681 39.6875 121.564 39.6641 121.408 39.6641C121.423 39.5078 121.463 39.3828 121.525 39.2891C121.603 39.1797 121.65 39.1016 121.666 39.0547C121.728 38.8516 121.72 38.5469 121.642 38.1406C121.564 37.7656 121.572 37.5 121.666 37.3438C121.697 37.2656 121.728 37.2109 121.759 37.1797C121.947 37.5391 122.072 38.1016 122.134 38.8672C122.197 39.6328 122.158 40.0938 122.017 40.25C122.033 40.2656 122.072 40.2969 122.134 40.3438C122.197 40.375 122.244 40.3984 122.275 40.4141C122.15 40.5391 122.095 41.1328 122.111 42.1953C122.142 43.2422 122.22 43.9062 122.345 44.1875C122.298 44.2188 122.189 44.2734 122.017 44.3516ZM122.181 44.7734C122.259 44.8047 122.314 44.8359 122.345 44.8672C122.267 44.8359 122.213 44.8047 122.181 44.7734ZM122.088 45.3828C122.056 45.3203 122.033 45.2344 122.017 45.125H122.088V45.3828ZM122.088 46.2266H121.923C121.939 46.0859 121.97 45.9141 122.017 45.7109H122.088V46.2266ZM121.83 44.4453V44.5156H121.502V44.3516H121.923V44.4453H121.83ZM121.759 36.0547C121.728 36.1953 121.697 36.3438 121.666 36.5C121.588 36.4062 121.533 36.2578 121.502 36.0547H121.759ZM121.502 33.3359C121.548 33.3516 121.658 33.4062 121.83 33.5C121.705 34.9844 121.619 35.7578 121.572 35.8203C121.541 35.8984 121.517 35.9531 121.502 35.9844C121.252 35.0312 121.252 34.1484 121.502 33.3359ZM121.244 30.0781H121.408V30.2656H121.244V30.0781ZM121.244 35.6328H121.15V35.4688H121.244V35.6328ZM121.502 29.4922H121.572V29.6562H121.502V29.4922ZM121.408 23.7734C121.58 23.9766 121.611 24.1719 121.502 24.3594V24.5469H121.314C121.33 24.4531 121.345 24.3203 121.361 24.1484C121.377 23.9766 121.392 23.8516 121.408 23.7734ZM121.244 22.6484H121.408V22.8359H121.244V22.6484ZM121.408 23.4219C121.377 23.4844 121.322 23.4844 121.244 23.4219H121.408ZM121.244 19.5078C121.275 19.5234 121.314 19.5469 121.361 19.5781C121.423 19.625 121.47 19.6562 121.502 19.6719C121.502 19.75 121.478 19.875 121.431 20.0469C121.4 20.1875 121.392 20.2891 121.408 20.3516C121.423 20.3984 121.509 20.6328 121.666 21.0547C121.822 21.4297 121.877 21.6797 121.83 21.8047C121.83 21.8203 121.783 21.9219 121.689 22.1094C121.58 22.2969 121.517 22.4531 121.502 22.5781C121.423 22.5469 121.361 22.5156 121.314 22.4844C121.064 22.1719 121.041 21.1797 121.244 19.5078ZM121.408 18.8984C121.377 18.9766 121.345 19.0312 121.314 19.0625V19.1562H121.244C121.228 19.0312 121.228 18.9141 121.244 18.8047C121.259 18.8203 121.283 18.8359 121.314 18.8516C121.361 18.8672 121.392 18.8828 121.408 18.8984ZM120.822 16.9297H120.728C120.728 16.6953 120.705 16.4219 120.658 16.1094C120.595 15.7031 120.564 15.4688 120.564 15.4062C120.502 15.4219 120.588 15.3906 120.822 15.3125C120.869 15.2031 120.869 15.0156 120.822 14.75C120.791 14.4844 120.791 14.3047 120.822 14.2109C120.869 14.3047 120.931 14.5781 121.009 15.0312C121.056 15.3906 121.189 15.625 121.408 15.7344C121.392 16.1562 121.197 16.5 120.822 16.7656V16.9297ZM120.822 12.9219V13.1797C120.775 13.1328 120.744 13.0469 120.728 12.9219H120.822ZM121.572 18.6406H121.502C121.439 18.4844 121.408 18.2891 121.408 18.0547C121.423 18.0703 121.455 18.125 121.502 18.2188C121.533 18.3125 121.556 18.3672 121.572 18.3828V18.6406ZM121.666 12.4062C121.681 12.4219 121.713 12.4688 121.759 12.5469C121.791 12.6094 121.814 12.6484 121.83 12.6641V12.9219H121.759C121.681 12.6719 121.65 12.5 121.666 12.4062ZM122.275 16.1562H122.088C122.041 16.0469 122.017 15.9375 122.017 15.8281C122.095 15.8594 122.181 15.8828 122.275 15.8984V16.1562ZM122.181 14.8906C122.181 15.1406 122.15 15.3125 122.088 15.4062C122.041 15.4688 122.017 15.4922 122.017 15.4766V15.4062H121.83C121.861 15.1562 121.845 14.7422 121.783 14.1641C121.72 13.7109 121.736 13.3516 121.83 13.0859C121.939 13.2266 122.002 13.5234 122.017 13.9766C122.033 14.4453 122.088 14.75 122.181 14.8906ZM120.377 25.9766C120.47 25.9766 120.298 26.0391 119.861 26.1641C119.814 26.1797 119.619 26.1484 119.275 26.0703C119.025 26.0234 118.541 26.0391 117.822 26.1172C117.103 26.1797 116.705 26.25 116.627 26.3281H116.463V26.2344H116.533C116.627 26.0938 117.15 25.9297 118.103 25.7422C118.994 25.5859 119.556 25.5234 119.791 25.5547C120.103 25.5547 120.298 25.5859 120.377 25.6484C120.392 25.6484 120.392 25.7578 120.377 25.9766ZM117.142 26.75V26.8438C116.923 26.8281 116.869 26.7969 116.978 26.75H117.048V26.6797C117.127 26.7109 117.181 26.7344 117.213 26.75H117.142ZM115.947 26.9375V26.8438C116.275 26.7812 116.47 26.7266 116.533 26.6797C116.595 26.6953 116.681 26.7188 116.791 26.75C116.713 26.8125 116.611 26.8516 116.486 26.8672C116.33 26.8828 116.236 26.9062 116.205 26.9375H115.947ZM115.525 27.1719C115.509 27.0312 115.564 26.8672 115.689 26.6797L115.853 26.75C115.838 26.8281 115.806 26.8984 115.759 26.9609C115.728 27.0391 115.705 27.1094 115.689 27.1719H115.525ZM115.338 26.2344H115.689C115.627 26.3281 115.509 26.3906 115.338 26.4219V26.2344ZM115.08 27.2656H114.916C114.931 27.1562 114.963 27.0469 115.009 26.9375H115.267C115.189 27.0469 115.127 27.125 115.08 27.1719V27.2656ZM115.173 26.4219C115.095 26.3906 115.041 26.3594 115.009 26.3281C115.088 26.3594 115.142 26.3906 115.173 26.4219ZM113.556 27.2656V27.3594C113.322 27.3438 113.259 27.3125 113.369 27.2656H113.463V27.1719C113.541 27.2031 113.595 27.2344 113.627 27.2656H113.556ZM109.877 34.9531C109.83 34.9375 109.744 34.7656 109.619 34.4375C109.728 34.5156 109.814 34.5781 109.877 34.625V34.9531ZM109.361 35.7266C109.439 35.7578 109.494 35.7891 109.525 35.8203C109.447 35.7891 109.392 35.7578 109.361 35.7266ZM109.197 35.0469C109.166 35.125 109.134 35.1797 109.103 35.2109C108.9 34.6797 108.814 33.6797 108.845 32.2109H109.103C108.994 32.4922 108.939 32.6406 108.939 32.6562C108.955 32.6719 108.994 32.6953 109.056 32.7266C109.134 32.7734 109.181 32.8047 109.197 32.8203C109.228 32.8828 109.267 33 109.314 33.1719C109.345 33.3281 109.392 33.4375 109.455 33.5C109.236 33.7969 109.095 33.9688 109.033 34.0156C109.314 34.4531 109.369 34.7969 109.197 35.0469ZM108.775 26.6797H108.845V26.8438H108.775V26.6797ZM109.291 39.4766V39.8281H109.103C109.119 39.7188 109.15 39.6016 109.197 39.4766H109.291ZM109.97 41.7969H110.228C110.213 41.9062 110.181 42.0156 110.134 42.125H110.041V42.2188H109.97V41.7969ZM110.298 44.5156V44.6094H110.228V44.7734H110.041C110.009 44.7266 109.994 44.6641 109.994 44.5859C109.994 44.5703 109.923 44.5469 109.783 44.5156C109.798 44.4844 109.814 44.4453 109.83 44.3984C109.861 44.3359 109.877 44.2891 109.877 44.2578C110.033 44.3516 110.15 44.4375 110.228 44.5156H110.298ZM107.134 35.3047C107.244 35.1016 107.244 34.875 107.134 34.625C107.259 34.5469 107.345 34.4844 107.392 34.4375C107.658 34.7969 107.775 34.9688 107.744 34.9531C107.478 35.25 107.361 35.3672 107.392 35.3047H107.134ZM106.9 30.3359C106.884 30.3359 106.798 30.25 106.642 30.0781C106.658 29.9688 106.713 29.8281 106.806 29.6562H107.228V30.0078C107.088 30.1016 106.978 30.2109 106.9 30.3359ZM105.002 32.0469C105.033 31.9375 105.267 31.5391 105.705 30.8516H106.197C106.134 31.0547 105.978 31.2656 105.728 31.4844C105.447 31.7188 105.267 31.9062 105.189 32.0469H105.002ZM104.931 32.3984H104.838V32.5625H104.744C104.744 32.5938 104.775 32.5078 104.838 32.3047H104.931V32.3984ZM102.611 32.3984C102.595 32.3828 102.455 32.3516 102.189 32.3047V32.1406C102.345 32.0938 102.463 32.0391 102.541 31.9766H102.705C102.673 32.1641 102.642 32.3047 102.611 32.3984ZM107.134 20C106.853 19.5781 106.744 19.0938 106.806 18.5469C106.838 18.2031 106.869 18.0625 106.9 18.125C106.884 18.0938 106.838 18.0234 106.759 17.9141C106.681 17.8047 106.642 17.7344 106.642 17.7031C106.611 17.6094 106.595 17.2656 106.595 16.6719C106.595 16.2969 106.463 16.0703 106.197 15.9922C106.275 15.6953 106.338 15.3281 106.384 14.8906C106.541 15.0156 106.611 15.2031 106.595 15.4531C106.595 15.75 106.634 15.9844 106.713 16.1562C106.728 16.1875 106.791 16.2188 106.9 16.25C106.994 16.2969 107.048 16.3281 107.064 16.3438C107.08 16.375 107.064 16.5234 107.017 16.7891C106.955 17.0703 106.939 17.2578 106.97 17.3516C107.173 18.1641 107.228 19.0469 107.134 20ZM107.064 20.8672H106.97C106.955 20.7266 106.955 20.6094 106.97 20.5156C107.08 20.6406 107.111 20.7266 107.064 20.7734V20.8672ZM126.705 30.0078C126.423 29.9609 126.259 29.8594 126.213 29.7031C126.134 29.3906 126.072 29.2031 126.025 29.1406C125.869 28.9219 125.525 28.6406 124.994 28.2969V28.0391C125.416 27.9766 125.673 27.9766 125.767 28.0391H125.931C125.963 27.9609 125.994 27.9062 126.025 27.875V27.6172C124.65 27.4766 123.908 27.3594 123.798 27.2656C123.642 27.25 123.416 27.1641 123.119 27.0078C123.353 23.1641 123.525 21.0312 123.634 20.6094C123.666 20.4531 123.642 20.2031 123.564 19.8594C123.486 19.5312 123.447 19.3516 123.447 19.3203C123.509 19.2891 123.595 19.2344 123.705 19.1562C123.72 18.9375 123.736 18.6094 123.752 18.1719C123.767 17.7344 123.783 17.4062 123.798 17.1875C124.017 16.3438 124.158 15.5781 124.22 14.8906C124.236 14.8125 124.197 14.6719 124.103 14.4688C124.025 14.2812 124.009 14.1094 124.056 13.9531C124.228 13.4375 124.283 13.0078 124.22 12.6641C124.189 12.4766 124.22 12.2813 124.314 12.0781C124.423 11.8125 124.478 11.6641 124.478 11.6328C124.369 11.2422 124.283 10.9609 124.22 10.7891L124.314 10.1094C124.236 9.76562 124.033 9.33594 123.705 8.82031C123.642 8.82031 123.275 8.875 122.603 8.98438C122.588 9.1875 122.572 9.47656 122.556 9.85156C122.556 10.2266 122.541 10.5078 122.509 10.6953C122.306 10.7891 122.166 10.8437 122.088 10.8594C121.806 11 121.525 10.8437 121.244 10.3906C121.15 10.2344 121.048 10.0391 120.939 9.80469C120.798 9.50781 120.728 9.35156 120.728 9.33594L119.791 9.75781V9.92188C120.009 10.125 120.15 10.2422 120.213 10.2734V10.4375C120.056 10.6406 119.884 10.8672 119.697 11.1172C119.838 11.0234 119.525 11.1953 118.759 11.6328C118.775 11.8828 118.861 12.1172 119.017 12.3359C119.22 12.6016 119.338 12.7656 119.369 12.8281C119.384 12.9219 119.353 12.9922 119.275 13.0391C119.197 13.0859 119.166 13.1328 119.181 13.1797C119.197 13.2109 119.244 13.2578 119.322 13.3203C119.4 13.3828 119.439 13.4219 119.439 13.4375C119.392 13.5469 119.478 14.1406 119.697 15.2188C119.728 15.375 119.697 15.6719 119.603 16.1094C119.494 16.5625 119.439 16.7812 119.439 16.7656C119.58 17.3906 119.72 17.8203 119.861 18.0547C119.752 18.2578 119.752 18.5703 119.861 18.9922C119.861 19.0703 119.853 19.1953 119.838 19.3672C119.806 19.5391 119.791 19.6641 119.791 19.7422C119.806 19.7891 119.861 19.9141 119.955 20.1172C120.048 20.2734 120.103 20.4062 120.119 20.5156C120.134 20.5938 120.111 20.6875 120.048 20.7969C120.002 20.9062 120.002 21.0156 120.048 21.125C120.064 21.1875 120.134 21.3281 120.259 21.5469C120.369 21.7344 120.439 21.875 120.47 21.9688C120.517 22.1719 120.509 22.5625 120.447 23.1406C120.384 23.6719 120.392 24.0234 120.47 24.1953V25.0391C120.361 25.0547 119.838 25.0938 118.9 25.1562C118.15 25.2031 117.673 25.2812 117.47 25.3906C117.47 25.4219 117.447 25.5078 117.4 25.6484C117.322 25.6797 117.158 25.6641 116.908 25.6016C116.611 25.5234 116.377 25.5078 116.205 25.5547C116.064 25.6016 115.548 25.8281 114.658 26.2344C113.627 26.7188 112.744 26.8906 112.009 26.75C111.338 26.625 110.916 26.6016 110.744 26.6797C110.244 26.8828 109.869 26.9922 109.619 27.0078C109.619 26.6797 109.603 26.1094 109.572 25.2969C109.541 24.625 109.525 24.0547 109.525 23.5859H109.291C109.353 23.5234 109.431 23.4688 109.525 23.4219C109.509 23.3281 109.455 23.2734 109.361 23.2578C109.486 22.9453 109.541 22.7734 109.525 22.7422C109.525 22.7266 109.494 22.6797 109.431 22.6016C109.369 22.5391 109.345 22.4688 109.361 22.3906C109.47 21.9219 109.525 21.7266 109.525 21.8047C109.525 21.7734 109.509 21.7266 109.478 21.6641C109.447 21.6016 109.439 21.5312 109.455 21.4531C109.455 21.4531 109.486 21.3906 109.548 21.2656C109.595 21.1406 109.619 21.0625 109.619 21.0312C109.509 20.3281 109.455 19.9609 109.455 19.9297C109.548 19.3516 109.603 18.125 109.619 16.25C109.634 14.5156 109.752 13.1797 109.97 12.2422C110.033 11.9766 110.048 11.5625 110.017 11C110.002 10.4219 110.009 10.0391 110.041 9.85156C109.994 9.78906 109.939 9.70313 109.877 9.59375C109.439 9.5 109.064 9.57812 108.752 9.82812C108.22 10.2812 107.939 10.5156 107.908 10.5312C107.658 11.8906 107.4 12.6563 107.134 12.8281C107.15 13.1875 107.213 13.4141 107.322 13.5078V13.8594C107.463 13.9375 107.236 13.3672 106.642 12.1484C106.142 11.1328 105.713 10.5625 105.353 10.4375C105.166 10.375 104.564 10.5156 103.548 10.8594C103.533 10.9375 103.509 11 103.478 11.0469C103.509 11.4062 103.65 11.6875 103.9 11.8906C104.353 12.2344 104.58 12.4062 104.58 12.4062C105.236 13.1719 105.58 14.5703 105.611 16.6016H105.869C105.869 17.7891 105.869 18.3828 105.869 18.3828C105.884 18.4453 105.97 18.5703 106.127 18.7578C106.267 18.9453 106.353 19.0781 106.384 19.1562C106.338 19.3906 106.275 19.7344 106.197 20.1875C106.213 20.2031 106.259 20.2578 106.338 20.3516C106.416 20.4453 106.455 20.5 106.455 20.5156C106.486 20.625 106.478 20.7812 106.431 20.9844C106.384 21.1719 106.392 21.3281 106.455 21.4531C106.47 21.4688 106.517 21.5078 106.595 21.5703C106.673 21.6328 106.713 21.6797 106.713 21.7109C106.759 21.8672 106.752 22.1172 106.689 22.4609C106.642 22.8203 106.627 23.0547 106.642 23.1641C106.798 24.3516 106.963 25.2891 107.134 25.9766C107.259 26.4453 107.291 26.8203 107.228 27.1016C107.213 27.1016 107.158 27.125 107.064 27.1719C107.064 27.2031 107.119 27.4609 107.228 27.9453C106.9 28.1484 106.33 28.4609 105.517 28.8828C104.752 29.2578 104.181 29.5703 103.806 29.8203C103.681 29.9141 103.509 30.0859 103.291 30.3359C103.072 30.6016 102.908 30.7734 102.798 30.8516C102.736 30.8984 102.65 30.9297 102.541 30.9453C102.416 30.9609 102.33 30.9844 102.283 31.0156C102.158 31.1094 101.97 31.2656 101.72 31.4844C101.47 31.7188 101.283 31.8828 101.158 31.9766C101.127 31.9922 101.056 32.0156 100.947 32.0469C100.838 32.0781 100.767 32.1094 100.736 32.1406C100.658 32.2344 100.556 32.4297 100.431 32.7266C100.322 32.9609 100.197 33.1328 100.056 33.2422C100.072 33.3984 100.095 33.5469 100.127 33.6875C100.173 33.8594 100.205 34 100.22 34.1094H100.314V34.1797C100.33 34.1797 100.869 33.6094 101.931 32.4688C101.978 32.4531 102.033 32.4297 102.095 32.3984V32.4688H102.189C102.142 32.7188 102.002 32.8672 101.767 32.9141C101.783 33.0234 101.783 33.1719 101.767 33.3594C101.752 33.5312 101.752 33.6953 101.767 33.8516H102.095C102.127 33.9141 102.275 34.0859 102.541 34.3672C102.791 34.7109 102.853 35.0312 102.728 35.3281C102.697 35.4062 102.634 35.5312 102.541 35.7031C102.447 35.8594 102.384 35.9766 102.353 36.0547C102.384 35.9766 102.416 36.1484 102.447 36.5703C102.447 36.6172 102.423 36.6719 102.377 36.7344C102.33 36.8125 102.298 36.875 102.283 36.9219H102.025V37.25C101.713 37.4062 101.595 37.4688 101.673 37.4375C101.658 37.8438 101.603 38.2656 101.509 38.7031C101.541 38.75 101.572 38.8125 101.603 38.8906C101.916 38.7656 102.119 38.5078 102.213 38.1172C102.338 37.6797 102.447 37.4219 102.541 37.3438L102.798 37.4375C102.83 37.4062 102.884 37.3359 102.963 37.2266C103.025 37.1172 103.08 37.0469 103.127 37.0156C103.142 37 103.173 37 103.22 37.0156C103.361 37.0938 103.486 37.2812 103.595 37.5781C103.689 37.8906 103.759 38.0703 103.806 38.1172C103.822 38.1172 103.939 38.1172 104.158 38.1172C104.205 37.9922 104.228 37.7812 104.228 37.4844C104.244 37.1875 104.275 36.9688 104.322 36.8281C104.619 35.9531 104.908 35.2734 105.189 34.7891C105.314 34.5391 105.556 34.2422 105.916 33.8984C106.338 33.5078 106.603 33.2344 106.713 33.0781H106.9C106.9 34.0156 106.783 35.0938 106.548 36.3125C106.58 36.3594 106.611 36.4219 106.642 36.5C106.986 36.4062 107.181 36.0625 107.228 35.4688C107.338 35.625 107.4 35.9375 107.416 36.4062C107.431 36.8125 107.509 37.0703 107.65 37.1797C107.603 37.2578 107.517 37.3125 107.392 37.3438C107.408 37.4531 107.455 37.5938 107.533 37.7656C107.611 37.9219 107.65 38.0391 107.65 38.1172C107.681 38.2734 107.658 38.5312 107.58 38.8906C107.517 39.2344 107.517 39.5156 107.58 39.7344C107.595 39.7969 107.658 39.9766 107.767 40.2734C107.845 40.5391 107.892 40.7344 107.908 40.8594C107.923 41.0156 107.908 41.3984 107.861 42.0078C107.798 42.5703 107.791 42.9219 107.838 43.0625C107.838 43.0781 107.877 43.1484 107.955 43.2734C108.033 43.3828 108.08 43.4609 108.095 43.5078C108.08 43.4453 108.048 43.6094 108.002 44C108.002 43.9688 108.056 44.1406 108.166 44.5156C108.213 44.7031 108.213 45.0625 108.166 45.5938C108.119 46 108.205 46.2969 108.423 46.4844C108.392 46.625 108.369 46.6953 108.353 46.6953C108.369 46.6953 108.345 46.6875 108.283 46.6719C108.22 46.6562 108.158 46.6484 108.095 46.6484C108.22 46.8828 108.361 47.0312 108.517 47.0938C108.486 47.1875 108.455 47.3281 108.423 47.5156C108.548 47.5312 108.634 47.5547 108.681 47.5859H108.775C108.681 46.9453 108.595 46.6094 108.517 46.5781C108.564 46.4844 108.65 46.4219 108.775 46.3906C108.775 46.5625 108.689 46.0781 108.517 44.9375C108.502 44.875 108.525 44.7969 108.588 44.7031C108.666 44.625 108.697 44.5625 108.681 44.5156C108.619 44.1719 108.58 43.625 108.564 42.875C108.548 42.125 108.502 41.5312 108.423 41.0938C108.439 41.1875 108.494 41.0234 108.588 40.6016C108.619 40.4766 108.595 39.8203 108.517 38.6328V38.4688C108.861 38.5469 108.97 38.5703 108.845 38.5391C108.845 38.6328 108.822 38.7422 108.775 38.8672C108.713 38.9766 108.681 39.0391 108.681 39.0547C108.681 39.1328 108.72 39.2422 108.798 39.3828C108.845 39.4922 108.838 39.6094 108.775 39.7344V40.0859C108.853 40.0547 108.908 40.0234 108.939 39.9922H109.291C109.244 40.1172 109.213 40.2344 109.197 40.3438C109.041 40.2656 108.955 40.2344 108.939 40.25H108.775C108.806 40.8438 108.916 41.2422 109.103 41.4453V41.5391C109.15 41.5078 109.213 41.4766 109.291 41.4453C109.291 41.4922 109.298 41.5781 109.314 41.7031C109.314 41.8125 109.33 41.8984 109.361 41.9609V42.125C109.564 42.1094 109.705 42.0547 109.783 41.9609C109.877 42.0859 109.939 42.2578 109.97 42.4766C110.002 42.6797 110.056 42.8203 110.134 42.8984C110.119 43.1953 110.033 43.4219 109.877 43.5781C109.814 43.375 109.783 42.9531 109.783 42.3125C109.72 42.3438 109.65 42.3984 109.572 42.4766C109.494 42.5547 109.4 42.6094 109.291 42.6406C109.291 42.6719 109.338 42.8438 109.431 43.1562C109.525 43.4531 109.595 43.7109 109.642 43.9297C109.767 44.6016 109.705 45.0234 109.455 45.1953C109.486 45.8984 109.627 46.2969 109.877 46.3906C109.845 46.5156 109.791 46.6016 109.713 46.6484C109.759 46.7734 109.783 46.8906 109.783 47C110.111 46.8125 110.173 46.2109 109.97 45.1953H110.228C110.291 45.8047 110.345 46.1797 110.392 46.3203H110.486V46.3906H110.556C110.525 46.0938 110.502 45.5 110.486 44.6094C110.455 43.8594 110.392 43.2578 110.298 42.8047C110.252 42.5703 110.275 42.2188 110.369 41.75C110.463 41.375 110.439 41.0781 110.298 40.8594V40.1562H110.228C110.009 41.3125 109.923 41.8281 109.97 41.7031L109.783 41.7969C109.627 41.3594 109.572 40.8984 109.619 40.4141C109.634 40.1328 109.681 39.9766 109.759 39.9453C109.775 39.9297 109.83 39.9141 109.923 39.8984C110.002 39.8828 110.072 39.8594 110.134 39.8281C110.353 39.5312 110.353 38.8828 110.134 37.8828C110.181 38.1172 110.213 38.3359 110.228 38.5391H109.97C109.939 38.5703 109.908 38.6016 109.877 38.6328C109.923 38.7734 110.009 38.8828 110.134 38.9609C110.119 39.2109 110.064 39.3828 109.97 39.4766C109.939 39.5234 109.877 39.5 109.783 39.4062C109.767 39.4219 109.744 39.4609 109.713 39.5234C109.666 39.5859 109.634 39.6328 109.619 39.6641C109.588 39.6953 109.556 39.7188 109.525 39.7344C109.431 39.4688 109.377 39.3281 109.361 39.3125C109.298 39.2812 109.189 39.2812 109.033 39.3125C109.142 38.8125 109.111 38.5 108.939 38.375V38.2109C109.111 38.3047 109.252 38.3594 109.361 38.375C109.361 38.2969 109.338 38.1719 109.291 38C109.259 37.8125 109.244 37.6797 109.244 37.6016C109.213 37.3047 109.283 37.0781 109.455 36.9219C109.439 36.875 109.384 36.8438 109.291 36.8281C109.447 36.5781 109.525 36.3516 109.525 36.1484C109.603 36.1953 109.666 36.25 109.713 36.3125C109.713 36.4062 109.65 36.4922 109.525 36.5703C109.572 36.6641 109.634 36.7266 109.713 36.7578C109.884 36.9453 110.025 37.3125 110.134 37.8594C110.103 37.7344 110.127 37.4766 110.205 37.0859C110.267 36.7109 110.275 36.4297 110.228 36.2422C110.213 36.2266 110.166 36.1641 110.088 36.0547C110.009 35.9297 109.97 35.8516 109.97 35.8203C109.955 35.7422 109.986 35.6406 110.064 35.5156C110.142 35.3906 110.166 35.2578 110.134 35.1172H109.97C110.158 34.8984 110.173 34.5234 110.017 33.9922C109.845 33.4297 109.767 33.125 109.783 33.0781H109.97V31.7891C109.986 31.7734 110.041 31.7344 110.134 31.6719C110.244 31.625 110.298 31.5781 110.298 31.5312C110.33 31.4531 110.306 31.3672 110.228 31.2734C110.181 31.2109 110.181 31.125 110.228 31.0156C110.353 30.6875 110.759 30.4453 111.447 30.2891C111.666 30.2422 111.97 30.1875 112.361 30.125C112.814 30.0625 113.095 30.0234 113.205 30.0078C113.283 29.9922 113.494 29.9844 113.838 29.9844C114.181 29.9844 114.455 29.9609 114.658 29.9141C114.689 29.9141 114.798 29.8672 114.986 29.7734C115.158 29.6953 115.252 29.6562 115.267 29.6562C116.611 29.6875 117.205 29.7188 117.048 29.75C118.002 29.5312 119.173 29.4453 120.564 29.4922C120.642 29.5703 120.752 29.6562 120.892 29.75C120.892 29.8594 120.869 29.9609 120.822 30.0547C120.759 30.1641 120.728 30.2344 120.728 30.2656C120.744 30.1406 120.83 30.25 120.986 30.5938C121.017 30.6875 120.9 30.9766 120.634 31.4609C120.666 31.5078 120.752 31.5312 120.892 31.5312V31.625H120.986C120.939 31.9375 120.822 32.3672 120.634 32.9141C120.759 32.9609 120.931 33.0469 121.15 33.1719C121.134 33.2969 121.103 33.3828 121.056 33.4297C121.025 33.4766 120.947 33.5 120.822 33.5C121.025 33.9844 121.08 34.2969 120.986 34.4375C120.97 34.4844 120.884 34.5469 120.728 34.625C120.869 35.625 121.009 36.25 121.15 36.5C121.275 36.7031 121.244 36.9297 121.056 37.1797C121.103 37.3984 121.22 37.5078 121.408 37.5078V37.8594C121.252 37.875 121.111 37.9062 120.986 37.9531C121.017 38.0312 121.041 38.0859 121.056 38.1172C121.15 38.1797 121.298 38.1797 121.502 38.1172C121.486 38.1484 121.47 38.2031 121.455 38.2812C121.439 38.3594 121.423 38.4219 121.408 38.4688C121.361 38.4531 121.244 38.3906 121.056 38.2812C121.041 38.375 121.072 38.4922 121.15 38.6328C121.228 38.7734 121.259 38.8828 121.244 38.9609C121.244 38.9766 121.197 39.0469 121.103 39.1719C121.025 39.2969 120.986 39.375 120.986 39.4062C120.97 39.4844 121.002 39.5703 121.08 39.6641C121.142 39.7578 121.166 39.8672 121.15 39.9922C121.025 41.2734 121.025 42.2734 121.15 42.9922C121.338 44.1016 121.369 44.6094 121.244 44.5156C121.228 44.8281 121.236 45.0156 121.267 45.0781C121.298 45.125 121.4 45.1953 121.572 45.2891C121.353 46.2266 121.244 46.6562 121.244 46.5781C121.369 46.5469 121.455 46.5156 121.502 46.4844H121.572C121.541 47.375 121.541 47.8594 121.572 47.9375C121.619 47.9688 121.681 48 121.759 48.0312C121.791 48 121.845 47.9688 121.923 47.9375C121.908 47.8594 121.892 47.7422 121.877 47.5859C121.861 47.4453 121.845 47.3359 121.83 47.2578C121.83 47.2422 121.869 47.2188 121.947 47.1875C122.009 47.1406 122.033 47.0781 122.017 47C121.923 46.6562 121.892 46.4531 121.923 46.3906C121.892 46.4062 122.088 46.4375 122.509 46.4844C122.509 46.5469 122.502 46.6328 122.486 46.7422C122.455 46.8516 122.439 46.9375 122.439 47H122.275C122.244 47.0312 122.298 47.6562 122.439 48.875H122.697C122.666 49.2656 122.603 49.5234 122.509 49.6484V49.7422H122.861C122.689 47.8672 122.72 46.6953 122.955 46.2266C122.939 45.9609 122.908 45.7891 122.861 45.7109C122.814 45.6797 122.728 45.6562 122.603 45.6406C122.65 45.2656 122.681 45.0078 122.697 44.8672H122.767V44.9375H122.955C122.97 44.2031 122.939 43.7812 122.861 43.6719C122.845 43.4531 122.845 43.3516 122.861 43.3672C122.845 43.3516 122.791 43.3359 122.697 43.3203C122.806 42.7266 122.861 41.8828 122.861 40.7891C122.861 39.5703 122.892 38.7109 122.955 38.2109C123.017 37.6641 122.955 37.2656 122.767 37.0156C122.564 37 122.509 36.9688 122.603 36.9219C122.619 36.875 122.673 36.7812 122.767 36.6406C122.861 36.5 122.923 36.3672 122.955 36.2422C122.986 35.9922 122.97 35.6562 122.908 35.2344C122.845 34.8281 122.83 34.5625 122.861 34.4375C122.955 34.0469 122.963 33.1875 122.884 31.8594C122.806 30.6875 122.853 29.9531 123.025 29.6562C123.275 29.5625 124.361 29.8516 126.283 30.5234C126.439 30.5703 126.713 30.5859 127.103 30.5703C127.431 30.5547 127.666 30.5938 127.806 30.6875H128.509C128.525 30.6094 128.548 30.5547 128.58 30.5234V30.4297C127.298 30.1328 126.673 29.9922 126.705 30.0078ZM109.97 47.1641C109.986 47.2266 110.033 47.3203 110.111 47.4453C110.189 47.5547 110.228 47.6328 110.228 47.6797C110.197 47.8047 110.134 47.9922 110.041 48.2422C109.963 48.5078 109.908 48.6875 109.877 48.7812C109.955 49.0938 110.009 49.2109 110.041 49.1328C110.041 49.1328 110.002 49.1484 109.923 49.1797C109.861 49.2109 109.845 49.2812 109.877 49.3906C109.892 49.4219 109.947 49.4766 110.041 49.5547C110.15 49.6328 110.213 49.6953 110.228 49.7422C110.197 49.8359 110.197 50.1484 110.228 50.6797H110.486C110.361 49.0703 110.361 47.9609 110.486 47.3516H110.134V47.1641C110.259 47.1172 110.377 47.0938 110.486 47.0938C110.486 47.0312 110.494 46.9453 110.509 46.8359C110.541 46.7109 110.556 46.625 110.556 46.5781H110.298C110.267 46.8281 110.158 47.0234 109.97 47.1641ZM108.517 47.8438C108.455 48.1875 108.423 48.3359 108.423 48.2891V49.0391C108.502 48.9922 108.564 48.8984 108.611 48.7578C108.673 48.6016 108.728 48.5 108.775 48.4531C108.775 48.125 108.689 47.9219 108.517 47.8438ZM121.83 53.4922C121.923 53.5391 121.986 53.5703 122.017 53.5859C121.986 51.3516 121.955 50.2109 121.923 50.1641C121.939 49.2891 121.853 48.7734 121.666 48.6172C121.634 48.6484 121.58 48.6797 121.502 48.7109C121.689 49.3516 121.713 50.0625 121.572 50.8438C121.588 50.8906 121.603 50.9609 121.619 51.0547C121.634 51.1641 121.65 51.2344 121.666 51.2656C121.572 51.625 121.517 51.7656 121.502 51.6875C121.533 51.7031 121.588 51.7344 121.666 51.7812C121.65 51.8281 121.634 51.8984 121.619 51.9922C121.603 52.0859 121.588 52.1562 121.572 52.2031C121.541 52.1875 121.627 52.25 121.83 52.3906C121.845 52.4531 121.83 52.5312 121.783 52.625C121.705 52.7344 121.666 52.7969 121.666 52.8125C121.634 53 121.627 53.2891 121.642 53.6797C121.673 54.1641 121.681 54.5 121.666 54.6875C121.931 54.375 122.048 54.2344 122.017 54.2656C122.033 53.9219 121.97 53.6953 121.83 53.5859V53.4922ZM122.767 49.9766C122.767 49.9766 122.658 49.9766 122.439 49.9766C122.58 50.9766 122.603 51.7188 122.509 52.2031C122.588 52.25 122.65 52.3125 122.697 52.3906H123.025C122.931 51.8125 122.822 51.4688 122.697 51.3594C123.072 50.9219 123.095 50.4609 122.767 49.9766ZM110.298 52.4609H110.392C110.423 52.4297 110.455 52.4062 110.486 52.3906V51.6875H110.298C110.314 52.0156 110.314 52.1875 110.298 52.2031V52.4609ZM122.509 52.7188C122.697 52.7031 122.814 52.7031 122.861 52.7188H122.955C122.892 52.5938 122.775 52.4844 122.603 52.3906C122.572 52.4688 122.541 52.5234 122.509 52.5547V52.7188ZM110.298 52.625C110.283 52.7656 110.314 52.8828 110.392 52.9766C110.423 52.9453 110.455 52.9141 110.486 52.8828C110.439 52.7578 110.377 52.6719 110.298 52.625ZM122.767 53.1406H122.697C122.681 53.0938 122.681 53.0078 122.697 52.8828H122.509C122.494 54.1484 122.611 54.9766 122.861 55.3672C122.892 55.3984 122.923 55.4297 122.955 55.4609C123.033 55.2266 123.064 54.7578 123.048 54.0547C123.017 53.2891 122.923 52.875 122.767 52.8125V53.1406ZM110.392 53.3281H110.486C110.455 53.2031 110.423 53.1172 110.392 53.0703V53.3281ZM122.697 56.8203H122.861C122.877 56.7422 122.908 56.6016 122.955 56.3984C122.986 56.2109 123.009 56.0703 123.025 55.9766H122.861C122.767 56.4453 122.713 56.6953 122.697 56.7266V56.8203ZM135.278 15.9922C135.356 16.0078 135.411 16.0312 135.442 16.0625C135.364 16.0312 135.309 16.0078 135.278 15.9922ZM134.762 13.9766C134.7 13.9609 134.653 13.9375 134.622 13.9062C134.591 13.8906 134.575 13.8828 134.575 13.8828C134.575 13.8828 134.528 13.9141 134.434 13.9766C134.372 13.8984 134.348 13.7734 134.364 13.6016H134.598C134.63 13.6953 134.684 13.7734 134.762 13.8359V13.9766ZM134.294 11.9844C134.372 12.0625 134.427 12.1875 134.458 12.3594C134.505 12.5625 134.552 12.6953 134.598 12.7578C134.583 12.8516 134.528 12.9766 134.434 13.1328H134.294C134.294 13.1172 134.294 12.7344 134.294 11.9844ZM133.895 11.6797C133.864 11.7109 133.817 11.7344 133.755 11.75C133.739 11.7188 133.716 11.6484 133.684 11.5391H133.895C133.927 11.5547 133.958 11.5781 133.989 11.6094C133.958 11.6406 133.927 11.6641 133.895 11.6797ZM139.122 8.53906C139.075 8.49219 138.973 8.3125 138.817 8C138.692 8.03125 138.583 8.07812 138.489 8.14062C138.38 8.21875 138.286 8.27344 138.208 8.30469C138.192 9.67969 138.114 10.5 137.973 10.7656C137.958 10.7969 137.848 10.9297 137.645 11.1641C137.552 11.2734 137.512 11.5 137.528 11.8438C137.387 11.8125 137.278 11.7578 137.2 11.6797C137.106 11.8203 137.028 12.0078 136.966 12.2422C136.887 12.4766 136.817 12.6484 136.755 12.7578C136.723 12.7734 136.669 12.7969 136.591 12.8281C136.528 12.8594 136.481 12.8906 136.45 12.9219V13.2969C136.294 13.3906 136.216 13.4375 136.216 13.4375C136.2 13.5 136.2 13.5703 136.216 13.6484C136.247 13.7109 136.247 13.7734 136.216 13.8359V13.9062H136.145C136.13 13.3438 136.153 12.9062 136.216 12.5938C136.231 12.5 136.216 12.3203 136.169 12.0547C136.122 11.8047 136.114 11.6562 136.145 11.6094C136.161 11.5937 136.192 11.5781 136.239 11.5625C136.302 11.5469 136.341 11.5391 136.356 11.5391C136.309 11.0859 136.286 10.8516 136.286 10.8359C136.411 10.4453 136.466 10.1875 136.45 10.0625C136.434 9.95312 136.481 9.76562 136.591 9.5C136.684 9.29687 136.661 9.10156 136.52 8.91406L136.45 8.77344C136.497 8.74219 136.317 8.89062 135.911 9.21875C135.895 9.57812 135.762 10.3438 135.512 11.5156C135.309 12.4375 135.286 13.2344 135.442 13.9062C135.458 13.9531 135.434 13.9922 135.372 14.0234C135.325 14.0391 135.294 14.0547 135.278 14.0703C135.262 14.1172 135.294 14.5781 135.372 15.4531V15.7578C135.153 15.6641 135.075 15.4688 135.137 15.1719C135.216 14.8125 135.216 14.5703 135.137 14.4453H134.973C135.114 14.2734 135.145 13.6484 135.067 12.5703C135.005 11.3984 134.973 10.7969 134.973 10.7656H134.903V10.6953C134.684 10.7891 134.559 10.9922 134.528 11.3047H134.364C134.27 10.9766 134.223 10.7734 134.223 10.6953H134.059C133.966 10.9297 133.911 11.1563 133.895 11.375H133.825C133.825 10.7344 133.927 10.2734 134.13 9.99219C134.114 9.92969 134.091 9.86719 134.059 9.80469C134.028 9.74219 134.005 9.67969 133.989 9.61719C133.427 9.67969 133.122 10.2578 133.075 11.3516C133.028 12.2422 133.13 13.0469 133.38 13.7656C133.395 13.8281 133.411 13.9375 133.427 14.0938C133.442 14.25 133.473 14.3906 133.52 14.5156C133.536 14.5625 133.591 14.6328 133.684 14.7266C133.778 14.8047 133.825 14.8672 133.825 14.9141C133.856 15.0078 133.841 15.1641 133.778 15.3828C133.731 15.6016 133.723 15.7734 133.755 15.8984C133.755 15.9297 133.794 15.9844 133.872 16.0625C133.934 16.1406 133.973 16.1875 133.989 16.2031C133.958 16.6406 133.927 17.0547 133.895 17.4453C134.145 18.3828 134.317 19.7109 134.411 21.4297C134.505 23.3828 134.622 24.7422 134.762 25.5078C134.762 25.5703 134.731 25.6953 134.669 25.8828C134.575 26.1016 134.528 26.2344 134.528 26.2812C134.481 26.4688 134.505 26.5938 134.598 26.6562C134.708 26.7344 134.762 26.7578 134.762 26.7266C134.731 26.6641 134.677 26.7969 134.598 27.125C134.598 27.1562 134.653 27.3828 134.762 27.8047C134.872 28.2578 134.817 28.7188 134.598 29.1875C134.598 29.2031 134.559 29.2422 134.481 29.3047C134.403 29.3672 134.364 29.4062 134.364 29.4219C134.286 29.7812 134.286 30.2969 134.364 30.9688C134.38 31.0781 134.325 31.2734 134.2 31.5547C134.122 31.7578 134.153 31.9453 134.294 32.1172C134.341 32.1328 134.419 32.1328 134.528 32.1172C134.622 32.3672 134.669 32.4922 134.669 32.4922C134.716 32.5234 134.77 32.5391 134.833 32.5391C134.895 32.5391 134.942 32.5469 134.973 32.5625C135.098 32.6094 135.255 32.9219 135.442 33.5C135.614 33.4844 135.848 33.3828 136.145 33.1953C136.177 32.0859 136.302 31.0312 136.52 30.0312C136.552 29.875 136.528 29.6875 136.45 29.4688C136.372 29.25 136.341 29.1094 136.356 29.0469C136.341 29.0938 136.473 27.9922 136.755 25.7422C136.755 25.6641 136.739 25.4844 136.708 25.2031C136.692 24.9531 136.708 24.75 136.755 24.5938C136.895 24.0312 137.091 22.9688 137.341 21.4062C137.559 20.0156 137.747 19.0781 137.903 18.5938C138.091 18.0469 138.137 17.5859 138.044 17.2109C138.044 17.2109 138.005 17.2109 137.927 17.2109C137.88 17.2266 137.872 17.2031 137.903 17.1406C138.075 16.7188 138.2 16.2812 138.278 15.8281C138.747 13.0937 138.95 11.7891 138.887 11.9141C138.934 11.7891 138.942 11.6016 138.911 11.3516C138.88 11.1172 138.872 10.9688 138.887 10.9062C138.903 10.8906 138.958 10.8594 139.052 10.8125C139.145 10.7656 139.2 10.7266 139.216 10.6953C139.278 10.5078 139.333 10.2109 139.38 9.80469C139.411 9.52344 139.536 9.28125 139.755 9.07812C139.739 8.79688 139.669 8.64062 139.544 8.60938C139.512 8.59375 139.442 8.58594 139.333 8.58594C139.255 8.58594 139.184 8.57031 139.122 8.53906ZM136.216 41.2578C136.169 41.3359 136.091 41.4219 135.981 41.5156C135.872 41.6406 135.794 41.7344 135.747 41.7969C135.606 41.7812 135.45 41.7266 135.278 41.6328C135.247 40.5391 135.356 39.6953 135.606 39.1016C135.887 39.1641 136.012 39.2109 135.981 39.2422C136.247 39.3047 136.427 39.5156 136.52 39.875C136.567 39.9688 136.559 40.1797 136.497 40.5078C136.419 40.8516 136.325 41.1016 136.216 41.2578ZM134.364 42.8516C134.02 42.6641 133.762 42.4375 133.591 42.1719C133.544 42.1406 133.536 42.1094 133.567 42.0781C133.63 42 133.669 41.9531 133.684 41.9375C133.575 41.9062 133.473 41.8828 133.38 41.8672C133.364 41.6641 133.317 41.5 133.239 41.375C133.145 41.2031 133.083 41.0859 133.052 41.0234C132.927 40.5547 132.966 40.0938 133.169 39.6406C133.2 39.5938 133.395 39.2812 133.755 38.7031C134.036 38.75 134.239 38.75 134.364 38.7031C134.395 38.7344 134.419 38.7656 134.434 38.7969C134.356 39.5625 134.005 40.0469 133.38 40.25C133.255 41.2969 133.583 42.0938 134.364 42.6406V42.8516ZM138.278 38.7031C138.278 38.2812 138.145 37.9453 137.88 37.6953C137.833 37.6484 137.708 37.5469 137.505 37.3906C137.348 37.2656 137.223 37.1406 137.13 37.0156C135.583 36.9844 134.794 36.9844 134.762 37.0156C134.716 37.0156 134.606 36.9688 134.434 36.875C134.341 36.9531 134.192 37.0234 133.989 37.0859C133.77 37.1484 133.614 37.2031 133.52 37.25C132.927 37.6562 132.466 38.2734 132.137 39.1016C132.075 39.2422 132.059 39.4375 132.091 39.6875C132.137 39.9688 132.153 40.1328 132.137 40.1797C131.997 40.9922 132.122 41.7422 132.512 42.4297C132.887 43.0703 133.403 43.5234 134.059 43.7891C134.684 44.0391 135.317 44.0703 135.958 43.8828C136.536 43.7109 137.005 43.3984 137.364 42.9453C137.411 42.8828 137.434 42.7812 137.434 42.6406C137.45 42.4844 137.481 42.375 137.528 42.3125C137.606 42.2812 137.708 42.2344 137.833 42.1719C137.864 42.1094 137.856 42.0156 137.809 41.8906C137.762 41.7812 137.739 41.7188 137.739 41.7031C137.755 41.6562 137.809 41.6016 137.903 41.5391C137.981 41.4766 138.028 41.4297 138.044 41.3984C137.934 41.1953 137.911 40.9922 137.973 40.7891C138.302 39.6484 138.403 38.9531 138.278 38.7031ZM149.547 15.9922C149.625 16.0078 149.68 16.0312 149.711 16.0625C149.633 16.0312 149.578 16.0078 149.547 15.9922ZM149.031 13.9766C148.969 13.9609 148.922 13.9375 148.891 13.9062C148.859 13.8906 148.844 13.8828 148.844 13.8828C148.844 13.8828 148.797 13.9141 148.703 13.9766C148.641 13.8984 148.617 13.7734 148.633 13.6016H148.867C148.898 13.6953 148.953 13.7734 149.031 13.8359V13.9766ZM148.562 11.9844C148.641 12.0625 148.695 12.1875 148.727 12.3594C148.773 12.5625 148.82 12.6953 148.867 12.7578C148.852 12.8516 148.797 12.9766 148.703 13.1328H148.562C148.562 13.1172 148.562 12.7344 148.562 11.9844ZM148.164 11.6797C148.133 11.7109 148.086 11.7344 148.023 11.75C148.008 11.7188 147.984 11.6484 147.953 11.5391H148.164C148.195 11.5547 148.227 11.5781 148.258 11.6094C148.227 11.6406 148.195 11.6641 148.164 11.6797ZM153.391 8.53906C153.344 8.49219 153.242 8.3125 153.086 8C152.961 8.03125 152.852 8.07812 152.758 8.14062C152.648 8.21875 152.555 8.27344 152.477 8.30469C152.461 9.67969 152.383 10.5 152.242 10.7656C152.227 10.7969 152.117 10.9297 151.914 11.1641C151.82 11.2734 151.781 11.5 151.797 11.8438C151.656 11.8125 151.547 11.7578 151.469 11.6797C151.375 11.8203 151.297 12.0078 151.234 12.2422C151.156 12.4766 151.086 12.6484 151.023 12.7578C150.992 12.7734 150.938 12.7969 150.859 12.8281C150.797 12.8594 150.75 12.8906 150.719 12.9219V13.2969C150.562 13.3906 150.484 13.4375 150.484 13.4375C150.469 13.5 150.469 13.5703 150.484 13.6484C150.516 13.7109 150.516 13.7734 150.484 13.8359V13.9062H150.414C150.398 13.3438 150.422 12.9062 150.484 12.5938C150.5 12.5 150.484 12.3203 150.438 12.0547C150.391 11.8047 150.383 11.6562 150.414 11.6094C150.43 11.5937 150.461 11.5781 150.508 11.5625C150.57 11.5469 150.609 11.5391 150.625 11.5391C150.578 11.0859 150.555 10.8516 150.555 10.8359C150.68 10.4453 150.734 10.1875 150.719 10.0625C150.703 9.95312 150.75 9.76562 150.859 9.5C150.953 9.29687 150.93 9.10156 150.789 8.91406L150.719 8.77344C150.766 8.74219 150.586 8.89062 150.18 9.21875C150.164 9.57812 150.031 10.3438 149.781 11.5156C149.578 12.4375 149.555 13.2344 149.711 13.9062C149.727 13.9531 149.703 13.9922 149.641 14.0234C149.594 14.0391 149.562 14.0547 149.547 14.0703C149.531 14.1172 149.562 14.5781 149.641 15.4531V15.7578C149.422 15.6641 149.344 15.4688 149.406 15.1719C149.484 14.8125 149.484 14.5703 149.406 14.4453H149.242C149.383 14.2734 149.414 13.6484 149.336 12.5703C149.273 11.3984 149.242 10.7969 149.242 10.7656H149.172V10.6953C148.953 10.7891 148.828 10.9922 148.797 11.3047H148.633C148.539 10.9766 148.492 10.7734 148.492 10.6953H148.328C148.234 10.9297 148.18 11.1563 148.164 11.375H148.094C148.094 10.7344 148.195 10.2734 148.398 9.99219C148.383 9.92969 148.359 9.86719 148.328 9.80469C148.297 9.74219 148.273 9.67969 148.258 9.61719C147.695 9.67969 147.391 10.2578 147.344 11.3516C147.297 12.2422 147.398 13.0469 147.648 13.7656C147.664 13.8281 147.68 13.9375 147.695 14.0938C147.711 14.25 147.742 14.3906 147.789 14.5156C147.805 14.5625 147.859 14.6328 147.953 14.7266C148.047 14.8047 148.094 14.8672 148.094 14.9141C148.125 15.0078 148.109 15.1641 148.047 15.3828C148 15.6016 147.992 15.7734 148.023 15.8984C148.023 15.9297 148.062 15.9844 148.141 16.0625C148.203 16.1406 148.242 16.1875 148.258 16.2031C148.227 16.6406 148.195 17.0547 148.164 17.4453C148.414 18.3828 148.586 19.7109 148.68 21.4297C148.773 23.3828 148.891 24.7422 149.031 25.5078C149.031 25.5703 149 25.6953 148.938 25.8828C148.844 26.1016 148.797 26.2344 148.797 26.2812C148.75 26.4688 148.773 26.5938 148.867 26.6562C148.977 26.7344 149.031 26.7578 149.031 26.7266C149 26.6641 148.945 26.7969 148.867 27.125C148.867 27.1562 148.922 27.3828 149.031 27.8047C149.141 28.2578 149.086 28.7188 148.867 29.1875C148.867 29.2031 148.828 29.2422 148.75 29.3047C148.672 29.3672 148.633 29.4062 148.633 29.4219C148.555 29.7812 148.555 30.2969 148.633 30.9688C148.648 31.0781 148.594 31.2734 148.469 31.5547C148.391 31.7578 148.422 31.9453 148.562 32.1172C148.609 32.1328 148.688 32.1328 148.797 32.1172C148.891 32.3672 148.938 32.4922 148.938 32.4922C148.984 32.5234 149.039 32.5391 149.102 32.5391C149.164 32.5391 149.211 32.5469 149.242 32.5625C149.367 32.6094 149.523 32.9219 149.711 33.5C149.883 33.4844 150.117 33.3828 150.414 33.1953C150.445 32.0859 150.57 31.0312 150.789 30.0312C150.82 29.875 150.797 29.6875 150.719 29.4688C150.641 29.25 150.609 29.1094 150.625 29.0469C150.609 29.0938 150.742 27.9922 151.023 25.7422C151.023 25.6641 151.008 25.4844 150.977 25.2031C150.961 24.9531 150.977 24.75 151.023 24.5938C151.164 24.0312 151.359 22.9688 151.609 21.4062C151.828 20.0156 152.016 19.0781 152.172 18.5938C152.359 18.0469 152.406 17.5859 152.312 17.2109C152.312 17.2109 152.273 17.2109 152.195 17.2109C152.148 17.2266 152.141 17.2031 152.172 17.1406C152.344 16.7188 152.469 16.2812 152.547 15.8281C153.016 13.0937 153.219 11.7891 153.156 11.9141C153.203 11.7891 153.211 11.6016 153.18 11.3516C153.148 11.1172 153.141 10.9688 153.156 10.9062C153.172 10.8906 153.227 10.8594 153.32 10.8125C153.414 10.7656 153.469 10.7266 153.484 10.6953C153.547 10.5078 153.602 10.2109 153.648 9.80469C153.68 9.52344 153.805 9.28125 154.023 9.07812C154.008 8.79688 153.938 8.64062 153.812 8.60938C153.781 8.59375 153.711 8.58594 153.602 8.58594C153.523 8.58594 153.453 8.57031 153.391 8.53906ZM150.484 41.2578C150.438 41.3359 150.359 41.4219 150.25 41.5156C150.141 41.6406 150.062 41.7344 150.016 41.7969C149.875 41.7812 149.719 41.7266 149.547 41.6328C149.516 40.5391 149.625 39.6953 149.875 39.1016C150.156 39.1641 150.281 39.2109 150.25 39.2422C150.516 39.3047 150.695 39.5156 150.789 39.875C150.836 39.9688 150.828 40.1797 150.766 40.5078C150.688 40.8516 150.594 41.1016 150.484 41.2578ZM148.633 42.8516C148.289 42.6641 148.031 42.4375 147.859 42.1719C147.812 42.1406 147.805 42.1094 147.836 42.0781C147.898 42 147.938 41.9531 147.953 41.9375C147.844 41.9062 147.742 41.8828 147.648 41.8672C147.633 41.6641 147.586 41.5 147.508 41.375C147.414 41.2031 147.352 41.0859 147.32 41.0234C147.195 40.5547 147.234 40.0938 147.438 39.6406C147.469 39.5938 147.664 39.2812 148.023 38.7031C148.305 38.75 148.508 38.75 148.633 38.7031C148.664 38.7344 148.688 38.7656 148.703 38.7969C148.625 39.5625 148.273 40.0469 147.648 40.25C147.523 41.2969 147.852 42.0938 148.633 42.6406V42.8516ZM152.547 38.7031C152.547 38.2812 152.414 37.9453 152.148 37.6953C152.102 37.6484 151.977 37.5469 151.773 37.3906C151.617 37.2656 151.492 37.1406 151.398 37.0156C149.852 36.9844 149.062 36.9844 149.031 37.0156C148.984 37.0156 148.875 36.9688 148.703 36.875C148.609 36.9531 148.461 37.0234 148.258 37.0859C148.039 37.1484 147.883 37.2031 147.789 37.25C147.195 37.6562 146.734 38.2734 146.406 39.1016C146.344 39.2422 146.328 39.4375 146.359 39.6875C146.406 39.9688 146.422 40.1328 146.406 40.1797C146.266 40.9922 146.391 41.7422 146.781 42.4297C147.156 43.0703 147.672 43.5234 148.328 43.7891C148.953 44.0391 149.586 44.0703 150.227 43.8828C150.805 43.7109 151.273 43.3984 151.633 42.9453C151.68 42.8828 151.703 42.7812 151.703 42.6406C151.719 42.4844 151.75 42.375 151.797 42.3125C151.875 42.2812 151.977 42.2344 152.102 42.1719C152.133 42.1094 152.125 42.0156 152.078 41.8906C152.031 41.7812 152.008 41.7188 152.008 41.7031C152.023 41.6562 152.078 41.6016 152.172 41.5391C152.25 41.4766 152.297 41.4297 152.312 41.3984C152.203 41.1953 152.18 40.9922 152.242 40.7891C152.57 39.6484 152.672 38.9531 152.547 38.7031Z" fill="#ECC839"/>
</g>
<defs>
<filter id="filter0_d_29500_187" x="0.3125" y="0" width="161.711" height="64.8203" filterUnits="userSpaceOnUse" color-interpolation-filters="sRGB">
<feFlood flood-opacity="0" result="BackgroundImageFix"/>
<feColorMatrix in="SourceAlpha" type="matrix" values="0 0 0 0 0 0 0 0 0 0 0 0 0 0 0 0 0 0 127 0" result="hardAlpha"/>
<feOffset/>
<feGaussianBlur stdDeviation="4"/>
<feComposite in2="hardAlpha" operator="out"/>
<feColorMatrix type="matrix" values="0 0 0 0 1 0 0 0 0 0.357143 0 0 0 0 0 0 0 0 1 0"/>
<feBlend mode="normal" in2="BackgroundImageFix" result="effect1_dropShadow_29500_187"/>
<feBlend mode="normal" in="SourceGraphic" in2="effect1_dropShadow_29500_187" result="shape"/>
</filter>
</defs>
</svg>
